<svg width="91" height="52" viewBox="0 0 91 52" fill="none" xmlns="http://www.w3.org/2000/svg">
<path d="M90.9013 28.0485L80.0475 0.867871C79.7668 0.165701 78.9757 -0.178318 78.2708 0.092316L66.6826 4.56124C66.3399 4.69319 66.0646 4.95643 65.9165 5.29304C65.769 5.62897 65.761 6.01003 65.8956 6.35201L66.6038 8.15423L61.3332 9.57272L53.5783 6.96599C50.0788 5.7892 46.3108 5.93595 42.9332 7.29385C42.1994 6.73574 41.3141 6.36142 40.2732 6.20524C38.6763 5.96356 36.9461 6.31094 35.4038 7.18277L28.7692 10.9285L25.9935 9.56323L27.0229 7.51128C27.1872 7.18275 27.2141 6.80237 27.097 6.45432C26.9805 6.10559 26.7287 5.81879 26.3995 5.65655L15.2637 0.172509C14.5851 -0.162755 13.7678 0.11259 13.4251 0.784473L0.149869 26.8879C-0.194822 27.5666 0.0751419 28.396 0.753751 28.7414L11.9636 34.445C12.1595 34.5446 12.3736 34.5951 12.5891 34.5951C12.7338 34.5951 12.8792 34.5722 13.0199 34.5264C13.3686 34.4113 13.6568 34.1622 13.8217 33.8343L14.67 32.1425L18.4347 34.488C18.296 35.0131 18.261 35.5645 18.3479 36.1179C18.5141 37.1782 19.0864 38.1086 19.9596 38.7394L20.9283 39.4382C21.6406 39.9532 22.468 40.201 23.2886 40.201C23.2933 40.201 23.2987 40.1996 23.3034 40.1996C23.3162 40.4366 23.331 40.6736 23.3815 40.9059C23.6259 42.0342 24.2843 42.9902 25.2356 43.5974C25.9338 44.043 26.7201 44.2551 27.5078 44.2551C27.6088 44.2551 27.7084 44.2235 27.8094 44.2167C27.8162 44.309 27.8067 44.4005 27.8195 44.4928C27.9737 45.6097 28.5466 46.5926 29.4332 47.2591C30.1778 47.8185 31.0571 48.0878 31.9404 48.0878C32.3975 48.0878 32.8485 47.9895 33.2888 47.8482C33.5877 48.5705 34.0778 49.2276 34.7336 49.7204C35.5468 50.3317 36.4934 50.6292 37.407 50.6292C38.5676 50.6292 39.6751 50.1485 40.3867 49.2181L41.1144 48.2662C42.6386 49.5184 45.3941 51.4055 48.1827 51.4055C48.5489 51.4055 48.9158 51.3725 49.28 51.3018C50.9894 50.9685 52.3438 49.8833 53.3153 48.0703C53.7045 48.1518 54.099 48.2097 54.5049 48.2097H54.5244C56.7622 48.2016 58.7321 46.8679 60.3949 44.2747C60.8325 44.3743 61.2734 44.445 61.7184 44.445C61.8309 44.445 61.9446 44.4416 62.0578 44.4342C64.2982 44.2942 66.1442 42.8131 67.564 40.063C67.8131 40.1101 68.0629 40.1559 68.3073 40.1654C68.3679 40.168 68.4284 40.1687 68.4884 40.1687C69.8052 40.1687 70.9605 39.6147 71.837 38.559C73.199 36.9197 73.8144 35.2872 73.6655 33.7065C73.6325 33.3503 73.5591 33.0016 73.4487 32.6616L75.9342 31.913L76.6546 33.7462C76.7886 34.0882 77.0538 34.3622 77.3911 34.5077C77.5655 34.5831 77.7513 34.6208 77.9378 34.6208C78.1115 34.6208 78.2858 34.5878 78.4508 34.5218L90.1325 29.8409C90.8401 29.5568 91.1834 28.755 90.9014 28.0488L90.9013 28.0485ZM11.9791 31.3587L3.23391 26.9088L15.2671 3.24745L23.9362 7.51645L22.9035 9.5765C22.9028 9.57717 22.9022 9.57784 22.9015 9.57852C22.9008 9.57919 22.9015 9.58054 22.9008 9.58121L11.9791 31.3587ZM21.5753 36.5029C21.3026 36.3063 21.1249 36.0169 21.073 35.689C21.0219 35.3638 21.102 35.0373 21.2986 34.77C21.5463 34.4321 21.9334 34.253 22.3266 34.253C22.5878 34.253 22.8517 34.3318 23.0786 34.496L24.0467 35.1942C24.3187 35.3908 24.4971 35.6802 24.5489 36.0088C24.6001 36.334 24.52 36.6605 24.3234 36.9277C23.912 37.4892 23.1129 37.6124 22.5441 37.2024L21.5753 36.5029ZM26.7207 41.2721C26.3019 41.0041 26.1397 40.6069 26.0777 40.3208C25.9714 39.83 26.0797 39.2881 26.3753 38.833L27.1562 37.6299C27.7251 36.7568 28.8076 36.4403 29.5684 36.9278C29.9878 37.195 30.1494 37.5922 30.212 37.8783C30.3184 38.3691 30.21 38.9117 29.9151 39.3655L29.1328 40.5692C28.5659 41.4431 27.4814 41.7575 26.7207 41.2721ZM31.0919 45.0535C30.797 44.832 30.6051 44.4988 30.5526 44.1157C30.4907 43.6667 30.6179 43.2089 30.9108 42.8258L33.5316 39.3977C34.0992 38.6558 35.1063 38.4599 35.7756 38.9641C36.0704 39.1856 36.2616 39.5182 36.3141 39.9012C36.3761 40.3503 36.2488 40.8088 35.9567 41.1918L35.7735 41.4315C35.7729 41.4322 35.7722 41.4328 35.7709 41.4342L33.6906 44.1547C33.69 44.1553 33.69 44.156 33.6893 44.1567L33.3352 44.6199C32.7676 45.3624 31.7584 45.5557 31.0919 45.0535ZM36.3915 47.5148C36.0273 47.2408 35.7876 46.8617 35.7344 46.4746C35.7102 46.2996 35.7162 46.0458 35.8812 45.8303L37.8813 43.2135L37.9614 43.1091C38.133 42.8849 38.4185 42.7732 38.7389 42.7732C39.0735 42.7732 39.4458 42.895 39.7669 43.136C40.1312 43.41 40.3708 43.7891 40.424 44.1762C40.4482 44.3512 40.4422 44.6057 40.2773 44.8211L38.197 47.5416C37.8476 47.9994 37.0202 47.9859 36.3914 47.5147L36.3915 47.5148ZM69.7162 36.7957C69.348 37.2401 68.9393 37.436 68.4129 37.4084C65.5793 37.3013 60.7259 31.9142 58.332 28.5433C57.8917 27.9219 57.03 27.7771 56.41 28.2167C55.7893 28.6577 55.6426 29.5181 56.0835 30.1387C56.647 30.9338 60.7705 36.6057 64.9964 39.0456C64.0842 40.7212 63.0406 41.6078 61.8867 41.6806C58.6532 41.9115 54.319 36.1864 53.0695 34.1721C52.6683 33.5252 51.82 33.3252 51.1717 33.7258C50.5247 34.127 50.3248 34.976 50.7246 35.623C51.1508 36.3117 54.0935 40.9261 57.8077 43.1921C56.7642 44.6792 55.6622 45.4453 54.5183 45.4507H54.5055C51.744 45.4507 48.7824 41.3992 47.873 39.836C47.4906 39.1776 46.645 38.952 45.9892 39.3365C45.3308 39.7182 45.106 40.5604 45.4877 41.2188C45.7859 41.7345 47.8299 45.1216 50.7509 46.9829C50.2083 47.8972 49.5539 48.4371 48.7562 48.5933C46.8113 48.971 44.2449 47.269 42.7538 46.0317C43.1153 45.3639 43.2647 44.593 43.1557 43.8007C43.0028 42.6905 42.372 41.645 41.4241 40.932C40.7038 40.3907 39.8791 40.1032 39.065 40.0427C39.0617 39.8703 39.0698 39.698 39.0462 39.5249C38.8927 38.4087 38.3198 37.4265 37.4331 36.76C36.0308 35.7064 34.1498 35.6828 32.6686 36.5493C32.3388 35.7481 31.7854 35.0702 31.0522 34.603C29.7745 33.787 28.2004 33.7561 26.8615 34.3761C26.5774 33.8241 26.1802 33.3339 25.6604 32.9583L24.6923 32.2601C23.2698 31.2321 21.3983 31.2833 20.0302 32.2319L15.912 29.6669L24.7582 12.0273L28.2051 13.7231C28.3976 13.8174 28.6057 13.8645 28.8137 13.8645C29.048 13.8645 29.2816 13.8046 29.4916 13.6861L36.7598 9.58219C37.7689 9.01264 38.871 8.78308 39.862 8.93052C39.8627 8.93052 39.8633 8.93119 39.864 8.93119C37.6128 10.5099 35.8913 12.6521 34.9575 15.0636C33.1923 19.624 35.3244 22.076 36.7113 22.7418C38.2503 23.4608 39.7098 23.5496 41.0468 23.0063C43.111 22.1702 44.2871 20.0448 44.9112 18.4089C45.1104 17.8851 45.509 17.4677 46.0314 17.2348C46.6158 16.9735 47.2816 16.9857 47.8572 17.2684L56.2415 21.3913C59.6171 23.0514 62.6586 25.2577 65.2836 27.9499C66.6583 29.3596 68.1583 30.7377 69.741 32.0438C70.46 32.6376 70.8572 33.2832 70.9205 33.9625C70.9979 34.7872 70.5933 35.7397 69.7161 36.7955L69.7162 36.7957ZM71.8497 30.2621C71.7299 30.1483 71.6282 30.0271 71.4969 29.9181C69.9902 28.674 68.5636 27.3646 67.2576 26.0248C64.4132 23.1077 61.1164 20.7164 57.4589 18.9169L49.0739 14.7941C47.7631 14.1491 46.2443 14.1195 44.908 14.7166C43.711 15.2505 42.7967 16.2132 42.3342 17.4276C41.9834 18.3473 41.2159 19.963 40.0121 20.4504C39.4015 20.6968 38.7034 20.6295 37.9245 20.266C37.7535 20.1717 36.294 19.2507 37.5293 16.0597C38.3742 13.8778 40.0566 11.9611 42.2675 10.6625C45.4241 8.80635 49.2287 8.41133 52.6983 9.57861L60.8484 12.3186C61.1069 12.4047 61.3849 12.4142 61.6462 12.3435L67.6176 10.7365L74.9235 29.336L71.8497 30.2621ZM78.7139 31.4443L68.9689 6.63342L77.9916 3.1541L87.8287 27.7909L78.7139 31.4443Z" fill="#11223B"/>
<path d="M10.3814 23.6244C9.87112 23.4036 9.26454 23.5281 8.87877 23.9139C8.6169 24.1758 8.47888 24.5346 8.47888 24.8927C8.47888 25.2516 8.61689 25.6097 8.87877 25.8716C9.14065 26.12 9.49882 26.2715 9.85765 26.2715C10.2158 26.2715 10.5746 26.12 10.8224 25.8716C11.0843 25.6097 11.2364 25.2516 11.2364 24.8927C11.2364 24.5346 11.0843 24.1758 10.8224 23.9139C10.6985 23.79 10.547 23.6931 10.3814 23.6244Z" fill="#BF1B27"/>
<path d="M81.8446 26.2699C82.2027 26.2699 82.5616 26.1184 82.8093 25.87C83.0719 25.6081 83.2233 25.25 83.2233 24.8911C83.2233 24.533 83.0719 24.1742 82.8093 23.9123C82.437 23.5265 81.817 23.402 81.3208 23.6228C81.141 23.6915 80.9896 23.7884 80.8657 23.9123C80.6038 24.1742 80.4658 24.533 80.4658 24.8911C80.4658 25.25 80.6038 25.6081 80.8657 25.87C81.1276 26.1184 81.4858 26.2699 81.8446 26.2699H81.8446Z" fill="#BF1B27"/>
</svg>
