<svg width="100" height="100" viewBox="0 0 100 100" fill="none" xmlns="http://www.w3.org/2000/svg">
<path d="M50 0C40.1113 1.35351e-07 30.4446 2.93224 22.2224 8.42594C14.0001 13.9196 7.59146 21.7281 3.80684 30.8639C0.0222127 39.9997 -0.968437 50.0526 0.960153 59.7515C2.88874 69.4503 7.64996 78.3594 14.6418 85.3524C21.6336 92.3453 30.5419 97.108 40.2404 99.0382C49.9389 100.968 59.992 99.9794 69.1284 96.1963C78.2649 92.4132 86.0744 86.0059 91.5695 77.7845C97.0645 69.5631 99.9984 59.897 100 50.0083C100.001 43.4415 98.7086 36.9388 96.1964 30.8716C93.6841 24.8043 90.0013 19.2914 85.3583 14.6476C80.7152 10.0038 75.2029 6.32007 69.1361 3.80681C63.0693 1.29356 56.5668 -8.98823e-08 50 0" fill="white"/>
<path d="M32.7928 26.5884C29.4072 29.0675 26.6009 32.2529 24.5683 35.924C22.5356 39.595 21.3252 43.664 21.0208 47.8492C20.9629 48.5606 20.9381 49.2721 20.9381 50.0083C20.9381 50.7446 20.9381 51.2575 20.996 51.8862C21.2844 56.3837 22.6186 60.7517 24.8924 64.6427H29.6079C26.9093 60.9024 25.3027 56.4861 24.9669 51.8862H32.7928V73.3952C34.0649 74.3366 35.4156 75.167 36.8299 75.877V24.0901C35.4173 24.8032 34.0669 25.6333 32.7928 26.5719M32.7928 47.8326H24.9917C25.513 41.6795 28.2916 35.9367 32.7928 31.7092V47.8326Z" fill="#273B56"/>
<path d="M87.7399 47.2535C87.1128 38.5871 83.5092 30.4039 77.5397 24.09C76.4603 22.9501 75.3139 21.8755 74.1065 20.872C73.4365 20.3177 72.7416 19.7883 72.0384 19.2836V68.9444C72.7791 68.0831 73.4696 67.1799 74.1065 66.2393C75.554 64.0943 76.7086 61.7656 77.5397 59.3151V52.4487H82.8259C82.4202 58.012 80.6006 63.3795 77.5397 68.0427C77.1923 68.5722 76.82 69.0933 76.4394 69.6063C75.7187 70.587 74.9397 71.5235 74.1065 72.4107C72.4544 74.1925 70.6093 75.7851 68.6052 77.1592V82.9501C74.0775 79.8542 78.6933 75.4451 82.0366 70.1204C85.3799 64.7957 87.3456 58.7226 87.7564 52.4487C87.8144 51.6215 87.8392 50.7942 87.8392 50.0083C87.8392 49.2224 87.8392 48.1635 87.7399 47.2535ZM78.9295 47.2535H77.5397V31.9656C80.5464 36.5404 82.3556 41.7973 82.8011 47.2535H78.9295Z" fill="#273B56"/>
<path d="M50 3.86328C40.8731 3.86165 31.9506 6.56661 24.361 11.6361C16.7714 16.7056 10.8556 23.9118 7.36177 32.3436C3.8679 40.7753 2.9529 50.0538 4.73248 59.0056C6.51205 67.9573 10.9063 76.1804 17.3594 82.6347C23.8126 89.089 32.0348 93.4847 40.9863 95.2659C49.9377 97.0471 59.2164 96.1337 67.6487 92.6413C76.0811 89.149 83.2884 83.2345 88.3593 75.6458C93.4301 68.0571 96.1367 59.1352 96.1367 50.0082C96.1378 43.9488 94.9452 37.9484 92.6271 32.3499C90.309 26.7514 86.9108 21.6644 82.6265 17.3793C78.3422 13.0943 73.2558 9.69512 67.6577 7.37602C62.0596 5.05692 56.0595 3.86328 50 3.86328ZM50 92.7531C41.5435 92.7547 33.2765 90.2485 26.2445 85.5513C19.2126 80.8542 13.7315 74.1771 10.4946 66.3647C7.25768 58.5522 6.41033 49.9553 8.0597 41.6612C9.70908 33.3672 13.7811 25.7485 19.7607 19.7689C25.7404 13.7893 33.359 9.71726 41.6531 8.06789C49.9471 6.41851 58.544 7.26587 66.3565 10.5028C74.1689 13.7397 80.846 19.2207 85.5431 26.2527C90.2403 33.2847 92.7465 41.5517 92.7449 50.0082C92.7449 55.6215 91.6393 61.1799 89.4911 66.366C87.343 71.552 84.1944 76.2642 80.2252 80.2334C76.256 84.2026 71.5438 87.3512 66.3578 89.4993C61.1717 91.6474 55.6134 92.7531 50 92.7531Z" fill="#273B56"/>
<path d="M66.8679 45.6237H70.5658V47.3775H68.266V48.8583H70.3673V50.6369H68.266V52.1177H70.5658V53.9956H66.8679V45.6237Z" fill="#273B56"/>
<path d="M60.0513 86.4908C56.777 87.3925 53.3962 87.8488 50 87.8475C44.8509 87.8265 39.7603 86.7551 35.0396 84.6987C30.3189 82.6424 26.0674 79.6444 22.5454 75.8882C19.0234 72.1321 16.3048 67.6967 14.5561 62.8536C12.8075 58.0105 12.0654 52.8615 12.3754 47.7218C12.6854 42.582 14.0409 37.5595 16.359 32.9617C18.6771 28.3639 21.9091 24.2874 25.857 20.9818C29.805 17.6762 34.3859 15.2109 39.3195 13.7369C44.2532 12.2628 49.4357 11.811 54.55 12.409C56.4071 12.6358 58.2455 12.9952 60.0513 13.4845V18.6301C58.2589 18.0469 56.4177 17.626 54.55 17.3726C53.043 17.1565 51.5224 17.0486 50 17.05C42.8185 17.04 35.8307 19.3783 30.1015 23.7085C24.3723 28.0387 20.216 34.1233 18.266 41.0349C16.316 47.9466 16.6793 55.3063 19.3004 61.9924C21.9216 68.6785 26.6569 74.3242 32.7846 78.0692C33.8959 78.7463 35.0449 79.3595 36.226 79.9057C40.5453 81.8945 45.2449 82.9219 50 82.917C51.5222 82.921 53.0428 82.816 54.55 82.6026C56.4168 82.3481 58.2576 81.9301 60.0513 81.3534V86.4908Z" fill="#273B56"/>
<path d="M45.8388 71.7074C46.0498 71.7328 46.2637 71.714 46.4669 71.6522C46.6702 71.5903 46.8583 71.4869 47.0194 71.3484C47.1805 71.2099 47.311 71.0393 47.4025 70.8476C47.4941 70.6559 47.5448 70.4473 47.5513 70.2349V56.9986C47.5436 55.5975 47.0193 54.2484 46.0788 53.2098C46.0788 53.2098 42.505 49.3216 40.594 47.4189C39.7652 46.7054 39.2485 45.6958 39.1545 44.6062V26.4063C39.1545 26.4063 39.1049 21.2856 45.8388 21.2856C52.5728 21.2856 52.5232 26.4063 52.5232 26.4063V38.6995H47.5596V29.5169C47.5596 28.5241 45.8471 28.5655 45.8471 28.5655C44.3415 28.5655 44.1347 29.5169 44.1347 29.5169V41.992C44.2755 43.0261 44.7799 43.9763 45.5576 44.6724C47.4686 46.6082 51.0424 50.4632 51.0424 50.4632C51.9209 51.4283 52.4382 52.6676 52.5066 53.9709V74.0652C52.5066 74.0652 52.9451 79.5913 45.8885 78.7806C38.8319 77.9699 39.0966 71.0953 39.0966 71.0953V59.5135H44.0602V70.1191C44.0608 70.3382 44.1064 70.5548 44.1943 70.7555C44.2822 70.9562 44.4104 71.1366 44.5711 71.2856C44.7317 71.4346 44.9213 71.549 45.128 71.6215C45.3347 71.6941 45.5542 71.7233 45.7727 71.7074" fill="#273B56"/>
<path d="M54.5499 78.7061V21.2938C56.4261 21.5899 58.2687 22.0692 60.0512 22.725V73.0145C63.3061 71.5916 66.2217 69.4937 68.6052 66.8597V72.3279C66.0581 74.4586 63.165 76.1374 60.0512 77.2915C58.2699 77.9511 56.4269 78.4305 54.5499 78.7227" fill="#273B56"/>
<path d="M66.2227 49.2719V49.1065C66.1483 45.7478 64.0222 45.6237 64.0222 45.6237H61.2839V53.9956H64.0222C64.0222 53.9956 66.1814 53.8467 66.2227 50.4632V50.3225V49.2719ZM64.775 50.4632C64.775 52.1177 63.5424 52.1177 63.5424 52.1177H62.7151V47.4685H63.5424C63.5424 47.4685 64.7667 47.4685 64.7667 49.123V49.9999L64.775 50.4632Z" fill="#273B56"/>
</svg>
