<svg width="30" height="30" viewBox="0 0 30 30" fill="none" xmlns="http://www.w3.org/2000/svg">
<path d="M15 29.9999C12.9688 29.9999 11.0254 29.6046 9.16992 28.8138C7.31445 28.023 5.71777 26.9589 4.37988 25.6214C3.04199 24.2839 1.97754 22.6878 1.18652 20.8329C0.395508 18.978 0 17.0352 0 15.0046C0 12.974 0.395508 11.0312 1.18652 9.17634C1.97754 7.32145 3.04199 5.72527 4.37988 4.3878C5.71777 3.05032 7.31445 1.9862 9.16992 1.19543C11.0254 0.404662 12.9688 0.00927734 15 0.00927734C17.0312 0.00927734 18.9746 0.404662 20.8301 1.19543C22.6855 1.9862 24.2822 3.05032 25.6201 4.3878C26.958 5.72527 28.0225 7.32145 28.8135 9.17634C29.6045 11.0312 30 12.974 30 15.0046C30 17.0352 29.6045 18.978 28.8135 20.8329C28.0225 22.6878 26.958 24.2839 25.6201 25.6214C24.2822 26.9589 22.6855 28.023 20.8301 28.8138C18.9746 29.6046 17.0312 29.9999 15 29.9999ZM23.8184 7.50694C23.7012 7.56552 23.5254 7.67291 23.291 7.82911L22.7197 8.20985L22.1777 8.50273L21.5625 8.70774C20.8398 7.90721 19.9512 7.50694 18.8965 7.50694C16.6113 7.50694 15.4688 8.46367 15.4688 10.3771V12.1051C12.3242 11.9489 9.91211 10.7969 8.23242 8.64916C7.74414 9.15682 7.5 9.71329 7.5 10.3186C7.5 11.6072 7.97852 12.5835 8.93555 13.2473C8.81836 13.2473 8.65234 13.2571 8.4375 13.2766C8.22266 13.2962 8.05176 13.2962 7.9248 13.2766C7.79785 13.2571 7.65625 13.2083 7.5 13.1302C7.5 14.0283 7.73926 14.7752 8.21777 15.3707C8.69629 15.9662 9.35547 16.3518 10.1953 16.5276C10 16.7619 9.72656 16.879 9.375 16.879C9.0625 16.879 8.78906 16.7912 8.55469 16.6154C8.55469 17.3769 8.9209 17.9676 9.65332 18.3873C10.3857 18.8071 11.2109 19.0268 12.1289 19.0463C11.7773 19.5735 11.2646 19.9689 10.5908 20.2325C9.91699 20.4961 9.19922 20.6279 8.4375 20.6279C8.16406 20.6279 7.78809 20.5595 7.30957 20.4228C6.83105 20.2862 6.58203 20.2178 6.5625 20.2178C6.875 20.8426 7.51465 21.3796 8.48145 21.8287C9.44824 22.2777 10.6738 22.5023 12.1582 22.5023C13.4668 22.5023 14.6875 22.2729 15.8203 21.814C16.9531 21.3552 17.9199 20.745 18.7207 19.9835C19.5215 19.222 20.21 18.3532 20.7861 17.3769C21.3623 16.4007 21.792 15.3902 22.0752 14.3456C22.3584 13.301 22.5 12.2711 22.5 11.2558C22.5 11.2167 22.6172 11.1337 22.8516 11.0068C23.0859 10.8799 23.3594 10.7091 23.6719 10.4943C23.9844 10.2795 24.2188 10.055 24.375 9.82067C23.3203 9.82067 22.6172 9.8402 22.2656 9.87925C22.9492 9.46922 23.4668 8.67845 23.8184 7.50694Z" fill="#1D9BF0"/>
</svg>
