<svg width="95" height="96" viewBox="0 0 95 96" fill="none" xmlns="http://www.w3.org/2000/svg">
<path d="M54.9842 12.4255H51.9875V15.4222H54.9842V12.4255Z" fill="#BF1B27"/>
<path d="M21.5816 78.7907L19.4626 80.9097L22.4588 83.9058L24.5778 81.7869L21.5816 78.7907Z" fill="#BF1B27"/>
<path d="M80.0167 62.3095L75.5217 57.8145C75.2341 57.5253 74.8205 57.35 74.4324 57.3755C74.0249 57.3845 73.6383 57.5583 73.3611 57.8579L73.1993 58.27L71.9048 56.7552V52.8805C71.9048 52.4834 71.7474 52.1014 71.4658 51.8212L62.9148 43.2702V33.4022C62.9148 33.0052 62.7575 32.6231 62.4758 32.3429L59.9181 29.7853V27.4089C59.9181 27.4089 61.4165 26.7377 61.4165 25.9106V19.9173V0H58.4198V17.9799H37.4432V0H34.4466V19.9173V25.9106C34.4466 26.7377 34.4466 27.4089 35.9449 27.4089V29.7853L30.3906 35.3396C30.1089 35.6198 29.9516 36.0018 29.9516 36.3989V40.2736L22.8989 47.3262C22.6173 47.6064 22.4599 47.9884 22.4599 48.3855V56.7552L20.7429 58.2535L20.1945 57.8145C19.6086 57.2286 18.6062 57.2286 18.0204 57.8145L13.4984 62.3095L0 75.7944L2.11114 77.9131L14.5338 65.4874L30.3921 81.3487L17.965 93.7744L20.0836 95.893L33.5685 82.408L38.0635 77.9131C38.6494 77.3272 38.6494 76.3803 38.0635 75.7944L37.6245 75.3554L39.2038 73.7762C39.463 73.8226 39.7282 73.8571 40.0009 73.8571C40.5927 73.8571 41.1546 73.7357 41.673 73.5275C42.1914 75.4378 43.922 76.8537 45.9942 76.8537C47.5899 76.8537 48.9863 75.7914 49.7835 74.5343C50.4382 74.9059 51.1829 74.9164 51.9875 74.9164H54.3638L55.8442 76.6155L55.3827 77.2253C54.8373 77.8172 54.8553 78.7866 55.4247 79.3559L59.9196 83.8779L71.9063 95.878L74.0249 93.7669L63.0571 82.8006L68.3717 77.044L79.0023 65.5279L92.8814 79.4114L95 77.2927L80.0167 62.3095ZM58.4198 20.9766V23.9732H37.4432V20.9766H58.4198ZM32.5092 79.2301L16.6479 63.3688L19.0243 60.9924L19.4633 61.4314L34.4466 76.4147L34.8856 76.8537L32.5092 79.2301ZM22.6412 60.3721L24.7973 58.4348C25.079 58.1546 25.4566 57.7725 25.4566 57.3755V49.0058L29.9516 44.5108V46.8872C29.9516 47.2842 30.1089 47.6663 30.3906 47.9465L35.9449 53.5008V69.3621C35.9449 70.4439 36.1247 71.4223 36.763 72.1999L35.6153 73.2368L22.6412 60.3721ZM50.9282 70.8604V47.9465H47.9315V70.8604V72.3588C47.9315 73.1843 47.2588 73.8571 46.4332 73.8571C45.6076 73.8571 44.9349 73.1843 44.9349 72.3588V69.3621V47.9465H41.9382V69.3621C41.9382 70.1877 41.2655 70.8604 40.4399 70.8604C39.6143 70.8604 38.9415 70.1877 38.9415 69.3621V44.9498H35.9449V49.2635L32.9482 46.2669V42.3922V39.3955V37.0192L38.5025 31.4649C38.7842 31.1847 38.9415 30.8026 38.9415 30.4056V26.9699H56.9215V30.4056C56.9215 30.8026 57.0788 31.1847 57.3605 31.4649L59.9181 34.0225V63.3688C59.9181 64.1944 59.2454 64.8671 58.4198 64.8671C57.5942 64.8671 56.9215 64.1944 56.9215 63.3688V47.9465H53.9248V63.3688V70.8604C53.9248 71.686 53.2521 72.3588 52.4265 72.3588C51.6009 72.3588 50.9282 71.686 50.9282 70.8604ZM56.0435 72.7978C56.039 72.7933 56.2532 72.7933 56.2502 72.7888C56.5319 72.2029 56.9215 71.5542 56.9215 70.8604V67.5881C56.9215 67.7559 57.8924 67.8638 58.4198 67.8638C60.898 67.8638 62.9148 65.847 62.9148 63.3688V47.5075L68.9081 53.5008V57.3755C68.9081 57.7725 68.8467 58.1546 69.1269 58.4348L71.0028 60.4216L64.4026 67.621L57.9029 74.6317L56.0435 72.7978ZM58.727 78.1288C58.8558 78.0524 58.9862 77.9745 59.0881 77.8621L66.5887 69.6108L74.5044 61.0359L76.8777 63.4107L71.5631 69.1688L60.9325 80.685L58.5592 78.3101L58.727 78.1288Z" fill="#11223B"/>
<path d="M79.395 71.2997L76.3988 74.2959L78.5177 76.4148L81.5139 73.4187L79.395 71.2997Z" fill="#BF1B27"/>
<path d="M47.4925 88.8403C42.4881 88.8403 37.632 87.8709 33.0576 85.9575L31.9024 88.7234C36.8439 90.7896 42.0895 91.837 47.4925 91.837C51.7418 91.837 55.9296 91.1807 59.9391 89.8861L59.0191 87.0333C55.3078 88.232 51.4286 88.8403 47.4925 88.8403Z" fill="#BF1B27"/>
<path d="M84.9507 51.3821C84.9507 54.8927 84.4668 58.3658 83.5109 61.7056L86.3921 62.5312C87.4245 58.9232 87.9489 55.1714 87.9489 51.3836C87.9489 35.7396 78.7881 21.3466 64.6109 14.718L63.3419 17.433C76.4672 23.5701 84.9507 36.8963 84.9507 51.3821Z" fill="#BF1B27"/>
<path d="M11.4083 61.4674C10.4958 58.201 10.0343 54.8073 10.0343 51.3821C10.0343 36.8963 18.5178 23.5702 31.6447 17.4315L30.3756 14.7166C16.1984 21.3452 7.03766 35.7381 7.03766 51.3821C7.03766 55.08 7.5366 58.7434 8.521 62.272L11.4083 61.4674Z" fill="#BF1B27"/>
</svg>
