<svg width="91" height="98" viewBox="0 0 91 98" fill="none" xmlns="http://www.w3.org/2000/svg">
<path d="M15.849 88.093C15.339 88.093 14.8415 87.8366 14.5534 87.3718L3.96578 70.2652C1.36177 66.0594 -0.00900124 61.2213 4.4481e-05 56.2754L0.0598419 26.7237C0.0625598 24.8374 1.00936 23.0978 2.59311 22.0722C4.17683 21.0456 6.15202 20.8925 7.87511 21.6608C9.88103 22.556 11.1722 24.5529 11.1659 26.7482C11.155 30.3306 11.117 35.235 11.0699 41.4457C11.0472 44.3976 11.0227 47.6283 10.9974 51.1155C10.991 51.9518 10.3115 52.6268 9.47526 52.6268H9.46348C8.6227 52.6213 7.94679 51.9346 7.95224 51.0938C7.97761 47.6047 8.00207 44.3747 8.02472 41.4221C8.07274 35.2158 8.10989 30.3142 8.12076 26.739C8.12439 25.7469 7.54091 24.8454 6.63397 24.4404C5.84393 24.088 4.97322 24.1559 4.24753 24.6262C3.5218 25.0964 3.10413 25.8629 3.10322 26.7281L3.04342 56.2798C3.03618 60.6568 4.24933 64.9386 6.55339 68.6615L17.1411 85.7681C17.5841 86.483 17.3621 87.4207 16.6473 87.8638C16.399 88.0178 16.1218 88.0921 15.8491 88.0921L15.849 88.093Z" fill="#11223B"/>
<path d="M26.6065 81.4363C26.4153 81.4363 26.2214 81.4 26.033 81.323C25.2538 81.0059 24.8796 80.118 25.1967 79.3388C25.3906 78.8622 25.551 78.3739 25.6724 77.8837C26.9897 72.6008 23.5994 67.2307 22.485 65.4658C22.4823 65.4622 22.4796 65.4586 22.4778 65.4541L14.6725 52.8369C14.2675 52.1828 13.6306 51.7343 12.8777 51.5757C12.1501 51.4226 11.4162 51.5657 10.8119 51.9798C9.62053 52.797 9.28257 54.399 10.0436 55.6292L16.3559 65.8327C16.7981 66.5476 16.577 67.4853 15.8621 67.9284C15.1473 68.3705 14.2096 68.1495 13.7665 67.4346L7.45422 57.231C5.83696 54.6154 6.55545 51.2059 9.0905 49.4691C10.3879 48.5803 11.9561 48.2704 13.5055 48.5975C15.0575 48.9246 16.4266 49.8868 17.2609 51.2349L25.0627 63.8458C26.352 65.8889 30.257 72.0816 28.626 78.6193C28.4693 79.2481 28.2636 79.876 28.0162 80.4848C27.7761 81.0783 27.2072 81.4362 26.6065 81.4362L26.6065 81.4363Z" fill="#11223B"/>
<path d="M18.6114 97.4217C18.2998 97.4217 17.9845 97.3854 17.6737 97.312C16.6182 97.0638 15.723 96.4187 15.1532 95.4964L12.687 91.5098C11.51 89.6062 12.1008 87.1001 14.0043 85.9232L28.429 76.9988C29.3513 76.4289 30.4404 76.2513 31.495 76.4996C32.5505 76.7479 33.4457 77.393 34.0155 78.3153L36.4818 82.3019C37.0526 83.2242 37.2292 84.3133 36.981 85.3679C36.7327 86.4234 36.0876 87.3186 35.1653 87.8884L20.7397 96.8128C20.0892 97.2151 19.3562 97.4217 18.6115 97.4217L18.6114 97.4217ZM15.2745 89.9079L17.7407 93.8945C17.8839 94.1256 18.1077 94.2868 18.3704 94.3475C18.6341 94.4101 18.9068 94.3657 19.1369 94.2225L33.5625 85.2981C33.7935 85.1549 33.9548 84.9312 34.0164 84.6675C34.0789 84.4039 34.0345 84.1311 33.8914 83.901L31.4252 79.9144C31.1307 79.4387 30.5046 79.291 30.0281 79.5855L15.6034 88.5099C15.1277 88.8062 14.9801 89.4323 15.2745 89.9079L15.2745 89.9079Z" fill="#11223B"/>
<path d="M75.1518 88.093C74.8782 88.093 74.6019 88.0196 74.3518 87.8647C73.637 87.4216 73.4168 86.4839 73.8581 85.769L84.4457 68.6624C86.7497 64.9395 87.9638 60.6577 87.9557 56.2798L87.8959 26.7304C87.895 25.8643 87.4782 25.0978 86.7516 24.6276C86.025 24.1573 85.1552 24.0894 84.3651 24.4418C83.4591 24.8468 82.8756 25.7483 82.8783 26.7395C82.8892 30.3155 82.9273 35.2172 82.9744 41.4225C82.997 44.3751 83.0215 47.6052 83.0469 51.0943C83.0532 51.935 82.3764 52.6218 81.5356 52.6273H81.5238C80.6876 52.6273 80.0081 51.9532 80.0026 51.116C79.9773 47.6278 79.9528 44.3988 79.9302 41.4461C79.8821 35.2364 79.845 30.331 79.8341 26.7487C79.8269 24.5534 81.1189 22.5557 83.1249 21.6613C84.8491 20.8921 86.8232 21.0461 88.4069 22.0726C89.9906 23.0991 90.9374 24.8388 90.9402 26.7258L91 56.2752C91.009 61.2211 89.6373 66.0594 87.0342 70.265L76.4466 87.3716C76.1603 87.8373 75.6611 88.0937 75.1519 88.0937L75.1518 88.093Z" fill="#11223B"/>
<path d="M64.3944 81.4363C63.7937 81.4363 63.2238 81.0775 62.9837 80.4877C62.7355 79.8788 62.5307 79.251 62.374 78.6222C60.7432 72.0842 64.6472 65.8916 65.9373 63.8487L73.7391 51.2368C74.5736 49.8878 75.9417 48.9265 77.4938 48.5994C79.0431 48.2724 80.6113 48.5813 81.9088 49.471C84.4439 51.2079 85.1622 54.6173 83.546 57.2329L77.2337 67.4374C76.7916 68.1523 75.8529 68.3734 75.138 67.9312C74.4232 67.4891 74.2021 66.5514 74.6443 65.8356L80.9566 55.632C81.7167 54.4025 81.3797 52.7989 80.1882 51.9827C79.5839 51.5686 78.851 51.4255 78.1234 51.5786C77.3705 51.738 76.7336 52.1847 76.3286 52.8398L68.5233 65.4569C68.5206 65.4605 68.5179 65.4651 68.5161 65.4687C67.4016 67.2336 64.0113 72.6037 65.3287 77.8866C65.451 78.3759 65.6114 78.866 65.8044 79.3417C66.1206 80.1208 65.7464 81.0087 64.9681 81.3258C64.7797 81.4001 64.5858 81.4364 64.3946 81.4364L64.3944 81.4363Z" fill="#11223B"/>
<path d="M72.3894 97.4217C71.6447 97.4217 70.9108 97.2151 70.2621 96.8128L55.8365 87.8884C54.9141 87.3185 54.27 86.4225 54.0208 85.3679C53.7726 84.3124 53.9501 83.2233 54.5209 82.3019L56.9872 78.3153C58.1641 76.4117 60.6701 75.8219 62.5737 76.9988L76.9984 85.9232C78.9019 87.1001 79.4927 89.6071 78.3157 91.5098V91.5107L75.8495 95.4973C75.2796 96.4196 74.3835 97.0638 73.329 97.312C73.0164 97.3854 72.702 97.4217 72.3894 97.4217L72.3894 97.4217ZM60.4398 79.4362C60.1 79.4362 59.7666 79.6066 59.5754 79.9164L57.1092 83.903C56.966 84.1341 56.9226 84.4059 56.9842 84.6695C57.0467 84.9332 57.2071 85.157 57.4381 85.2992L71.8637 94.2236C72.0938 94.3668 72.3665 94.4103 72.6302 94.3486C72.8938 94.2861 73.1176 94.1258 73.2598 93.8956L75.7261 89.909C76.0205 89.4325 75.8729 88.8064 75.3972 88.5119L60.9725 79.5875C60.8058 79.4852 60.6219 79.4362 60.4398 79.4362L60.4398 79.4362ZM77.0208 90.709H77.0217H77.0208Z" fill="#11223B"/>
<path d="M45.5004 7.78094C44.6597 7.78094 43.9783 7.09961 43.9783 6.25883V1.52212C43.9783 0.681328 44.6597 0 45.5004 0C46.3412 0 47.0226 0.681328 47.0226 1.52212V6.25883C47.0226 7.09871 46.3412 7.78094 45.5004 7.78094Z" fill="#BF1B27"/>
<path d="M45.5004 14.8204C42.7199 14.8204 40.4585 12.5589 40.4585 9.77842C40.4585 6.99791 42.7199 4.73648 45.5004 4.73648C48.281 4.73648 50.5424 6.99791 50.5424 9.77842C50.5424 12.558 48.281 14.8204 45.5004 14.8204ZM45.5004 7.78048C44.3987 7.78048 43.5027 8.67654 43.5027 9.77826C43.5027 10.88 44.3987 11.776 45.5004 11.776C46.6022 11.776 47.4982 10.88 47.4982 9.77826C47.4982 8.67654 46.6022 7.78048 45.5004 7.78048Z" fill="#BF1B27"/>
<path d="M26.6204 36.8316C21.6789 36.8316 17.658 32.8116 17.658 27.8692C17.658 27.0284 18.3393 26.347 19.1801 26.347H34.0596C34.9004 26.347 35.5817 27.0284 35.5817 27.8692C35.5826 32.8116 31.5617 36.8316 26.6202 36.8316H26.6204ZM20.9007 29.3914C21.5739 31.9191 23.8823 33.7874 26.6204 33.7874C29.3576 33.7874 31.667 31.9192 32.3401 29.3914H20.9007Z" fill="#BF1B27"/>
<path d="M21.7867 29.391C21.6653 29.391 21.5421 29.3765 21.4198 29.3457C20.6035 29.1436 20.1061 28.3182 20.3081 27.5028L24.744 9.57722C24.946 8.7609 25.7705 8.26348 26.5868 8.46552C27.4032 8.66757 27.9006 9.49296 27.6985 10.3084L23.2627 28.234C23.0914 28.9271 22.4699 29.391 21.7867 29.391V29.391Z" fill="#BF1B27"/>
<path d="M31.4541 29.3909C30.77 29.3909 30.1494 28.9271 29.9773 28.2339L25.5423 10.3083C25.3403 9.49203 25.8386 8.66664 26.654 8.4655C27.4703 8.26346 28.2957 8.76176 28.4969 9.5772L32.9327 27.5028C33.1348 28.3191 32.6365 29.1445 31.821 29.3456C31.6987 29.3764 31.5755 29.3909 31.4541 29.3909H31.4541Z" fill="#BF1B27"/>
<path d="M59.5468 29.391C59.4254 29.391 59.3022 29.3765 59.1799 29.3457C58.3636 29.1436 57.8661 28.3182 58.0682 27.5028L62.5041 9.57722C62.7061 8.7609 63.5306 8.26348 64.3469 8.46552C65.1632 8.66757 65.6607 9.49296 65.4586 10.3084L61.0227 28.234C60.8515 28.9271 60.2299 29.391 59.5468 29.391V29.391Z" fill="#BF1B27"/>
<path d="M69.2142 29.3909C68.5301 29.3909 67.9095 28.9271 67.7374 28.2339L63.3015 10.3083C63.0994 9.49203 63.5977 8.66664 64.4132 8.4655C65.2286 8.26346 66.0549 8.76176 66.256 9.5772L70.6919 27.5028C70.8939 28.3191 70.3956 29.1445 69.5802 29.3456C69.4579 29.3764 69.3347 29.3909 69.2142 29.3909Z" fill="#BF1B27"/>
<path d="M64.3805 36.8316C59.439 36.8316 55.418 32.8116 55.418 27.8692C55.418 27.0284 56.0994 26.347 56.9401 26.347H71.8197C72.6604 26.347 73.3418 27.0284 73.3418 27.8692C73.3427 32.8116 69.3218 36.8316 64.3802 36.8316H64.3805ZM58.6608 29.3914C59.334 31.9191 61.6424 33.7874 64.3805 33.7874C67.1176 33.7874 69.4261 31.9192 70.1002 29.3914H58.6608Z" fill="#BF1B27"/>
<path d="M56.7009 51.5204H34.3004C33.4596 51.5204 32.7783 50.8391 32.7783 49.9983V49.973C32.7783 46.3479 35.7284 43.3979 39.3534 43.3979H51.6481C55.2732 43.3979 58.2232 46.3479 58.2232 49.973V49.9983C58.2232 50.8391 57.5417 51.5204 56.7009 51.5204ZM36.156 48.4762H54.8453C54.2809 47.2757 53.0605 46.4422 51.648 46.4422H39.3533C37.9408 46.4422 36.7196 47.2758 36.156 48.4762Z" fill="#BF1B27"/>
<path d="M45.5004 46.4433C44.6597 46.4433 43.9783 45.762 43.9783 44.9212V13.2983C43.9783 12.4575 44.6597 11.7762 45.5004 11.7762C46.3412 11.7762 47.0226 12.4575 47.0226 13.2983V44.9212C47.0226 45.7611 46.3412 46.4424 45.5004 46.4424V46.4433Z" fill="#BF1B27"/>
<path d="M69.2281 11.2995H49.0192C48.1785 11.2995 47.4971 10.6182 47.4971 9.7774C47.4971 8.93661 48.1785 8.25528 49.0192 8.25528H69.2281C70.0689 8.25528 70.7502 8.93661 70.7502 9.7774C70.7502 10.6191 70.0689 11.2995 69.2281 11.2995Z" fill="#BF1B27"/>
<path d="M41.9796 11.2995H21.7708C20.93 11.2995 20.2487 10.6182 20.2487 9.7774C20.2487 8.93661 20.93 8.25528 21.7708 8.25528H41.9796C42.8204 8.25528 43.5017 8.93661 43.5017 9.7774C43.5017 10.6191 42.8204 11.2995 41.9796 11.2995Z" fill="#BF1B27"/>
</svg>
