<svg width="19" height="19" viewBox="0 0 19 19" fill="#C20C0D" xmlns="http://www.w3.org/2000/svg">
<path d="M17.9506 3.85996C17.7105 2.78597 17.1145 1.82745 16.2616 1.14344C15.3424 0.380869 14.1841 -0.0242776 12.9956 0.00112605C11.6806 0.00112605 10.3646 0.00112605 9.04963 0.00112605H5.05963C4.20418 -0.0168811 3.35958 0.197315 2.61363 0.621375C1.81419 1.04858 1.14775 1.69199 0.688657 2.48002C0.229566 3.26805 -0.00413155 4.16972 0.0136311 5.08428C-0.0123689 7.80087 0.00663437 10.5174 0.00763437 13.234C-0.0068255 14.0896 0.205165 14.9336 0.621633 15.6784C1.04257 16.4859 1.67677 17.1594 2.45361 17.6239C3.23045 18.0883 4.11945 18.3255 5.02163 18.309C7.71163 18.3363 10.4016 18.3192 13.0916 18.3152C13.7531 18.3162 14.4083 18.1847 15.0193 17.9282C15.6303 17.6717 16.1851 17.2953 16.6515 16.8207C17.118 16.3462 17.4869 15.7829 17.737 15.1633C17.9871 14.5437 18.1134 13.88 18.1086 13.2108C18.1166 10.5087 18.1166 7.80694 18.1086 5.10552C18.1011 4.68577 18.0481 4.26803 17.9506 3.85996ZM16.4946 13.2047C16.5011 13.6672 16.4153 14.1263 16.2423 14.5545C16.0693 14.9827 15.8128 15.3712 15.488 15.6968C15.1632 16.0224 14.7769 16.2783 14.3521 16.4493C13.9273 16.6204 13.4727 16.7031 13.0156 16.6923H5.09263C4.40543 16.7107 3.72914 16.5158 3.15463 16.1338C2.71166 15.8497 2.34199 15.4628 2.07626 15.0053C1.81053 14.5478 1.6564 14.0329 1.62663 13.5031C1.61163 13.3088 1.60963 13.1126 1.60963 12.9183C1.60963 10.3309 1.60963 7.74389 1.60963 5.15715C1.59487 4.65242 1.69099 4.15064 1.89106 3.68804C2.09114 3.22544 2.39019 2.81352 2.76663 2.482C3.393 1.91506 4.20837 1.60915 5.04863 1.62598C7.71963 1.62598 10.3906 1.61181 13.0606 1.62598C13.7219 1.60599 14.3738 1.78705 14.9325 2.14557C15.4911 2.50409 15.9307 3.02366 16.1946 3.6374C16.4077 4.09684 16.5121 4.60016 16.4996 5.1075C16.4996 7.81296 16.5106 10.5103 16.4946 13.2067V13.2047Z" fill="#C20C0D"/>
<path d="M9.05665 4.44275C8.13416 4.44215 7.2322 4.71834 6.46486 5.2364C5.69752 5.75446 5.09926 6.49109 4.74573 7.35318C4.39221 8.21527 4.2993 9.16407 4.47876 10.0796C4.65822 10.9951 5.10198 11.8363 5.75394 12.4966C6.40589 13.1569 7.23674 13.6068 8.14142 13.7893C9.0461 13.9719 9.98396 13.879 10.8364 13.5222C11.6889 13.1654 12.4176 12.5609 12.9304 11.7851C13.4433 11.0093 13.7173 10.097 13.7177 9.16366C13.7142 7.91354 13.2222 6.71553 12.349 5.83109C11.4758 4.94664 10.2922 4.44755 9.05665 4.44275ZM9.05665 12.2545C8.45199 12.2557 7.86056 12.0756 7.35716 11.7367C6.85376 11.3978 6.461 10.9154 6.22856 10.3507C5.99612 9.78592 5.93443 9.16403 6.0513 8.56379C6.16817 7.96355 6.45835 7.41183 6.88514 6.97846C7.31193 6.54509 7.85616 6.24951 8.44899 6.12911C9.04182 6.0087 9.65663 6.06887 10.2157 6.30202C10.7747 6.53516 11.2528 6.93079 11.5896 7.43889C11.9264 7.94699 12.1067 8.54485 12.1077 9.15662C12.1079 9.97618 11.7874 10.7624 11.2162 11.3435C10.6451 11.9247 9.86967 12.2533 9.05965 12.2576L9.05665 12.2545Z" fill="#C20C0D"/>
<path d="M13.9086 3.06775C13.677 3.06975 13.451 3.14101 13.2593 3.27265C13.0676 3.40428 12.9187 3.59046 12.8313 3.80755C12.744 4.02465 12.722 4.26296 12.7683 4.49264C12.8145 4.72233 12.9269 4.93313 13.0913 5.09832C13.2557 5.26351 13.4647 5.37579 13.692 5.42104C13.9193 5.46629 14.1548 5.44238 14.3688 5.35249C14.5828 5.26261 14.7657 5.11074 14.8945 4.9159C15.0233 4.72106 15.0922 4.49202 15.0926 4.25761C15.09 3.94147 14.9642 3.63908 14.7425 3.41628C14.5208 3.19349 14.2211 3.06827 13.9086 3.06775Z" fill="#C20C0D"/>
</svg>
