<svg width="35" height="35" viewBox="0 0 35 35" fill="none" xmlns="http://www.w3.org/2000/svg">
<circle cx="17.5" cy="17.5" r="17.5" fill="#11223B"/>
<path d="M13.3824 9.36686C13.1375 9.60183 13 9.92048 13 10.2527C13 10.585 13.1375 10.9036 13.3824 11.1386L19.8474 17.3409L13.3824 23.5432C13.1445 23.7795 13.0128 24.096 13.0158 24.4246C13.0188 24.7531 13.1562 25.0674 13.3983 25.2997C13.6405 25.532 13.968 25.6638 14.3105 25.6666C14.6529 25.6695 14.9829 25.5432 15.2292 25.3149L22.6176 18.2268C22.8625 17.9918 23 17.6731 23 17.3409C23 17.0086 22.8625 16.69 22.6176 16.455L15.2292 9.36686C14.9843 9.13196 14.6521 9 14.3058 9C13.9595 9 13.6273 9.13196 13.3824 9.36686Z" fill="white"/>
</svg>
