<svg width="19" height="19" viewBox="0 0 19 19" fill="none" xmlns="http://www.w3.org/2000/svg">
<path d="M17.9512 3.89525C17.7104 2.82155 17.1141 1.86342 16.2612 1.17971C15.3427 0.416454 14.1845 0.0109082 12.9962 0.036412C11.6802 0.0414708 10.3652 0.036412 9.0492 0.036412H5.0592C4.20372 0.0192065 3.35923 0.233574 2.6132 0.657526C1.81368 1.08464 1.14718 1.72812 0.688075 2.51617C0.228972 3.30422 -0.0046755 4.20585 0.0132018 5.12043C-0.0117982 7.83702 0.00620126 10.5537 0.00720126 13.2702C-0.00690539 14.126 0.205432 14.9699 0.622203 15.7147C1.04332 16.5221 1.67755 17.1954 2.45435 17.6598C3.23115 18.1242 4.12006 18.3615 5.0222 18.3453C7.7122 18.3726 10.4022 18.3554 13.0922 18.3503C14.267 18.3664 15.4077 17.9504 16.3022 17.1797C16.8784 16.7055 17.3405 16.1049 17.6535 15.4235C17.9666 14.742 18.1224 13.9973 18.1092 13.2459C18.1159 10.5445 18.1142 7.84309 18.1042 5.14167C18.0978 4.72181 18.0465 4.30395 17.9512 3.89525ZM14.9432 5.58383C14.834 5.73757 14.7161 5.88489 14.5902 6.02499C14.5242 6.09885 14.4582 6.17171 14.3902 6.24051C14.2253 6.40332 14.0492 6.55415 13.8632 6.6918C13.8457 6.70281 13.832 6.71892 13.8239 6.73812C13.8159 6.75732 13.8139 6.77862 13.8182 6.79901C13.8197 6.81583 13.8197 6.83282 13.8182 6.84964C13.8182 6.97713 13.8182 7.10451 13.8182 7.23301C13.8182 7.30788 13.8132 7.38376 13.8082 7.45964C13.8032 7.53552 13.7972 7.63775 13.7882 7.72679C13.7742 7.8482 13.7602 7.96863 13.7412 8.08903C13.7172 8.23068 13.6882 8.37128 13.6622 8.51192C13.6272 8.69505 13.5782 8.87518 13.5262 9.05325C13.4562 9.28899 13.3762 9.52166 13.2832 9.75032C13.1985 9.96144 13.1039 10.1685 12.9992 10.3716C12.8892 10.5847 12.7692 10.7924 12.6392 10.9948C12.4647 11.2654 12.2729 11.5243 12.0652 11.7698C12.0012 11.8446 11.9332 11.9175 11.8652 11.9894C11.7822 12.0774 11.7012 12.1664 11.6132 12.2493C11.4882 12.3667 11.3612 12.48 11.2302 12.5913C10.9869 12.796 10.7281 12.981 10.4562 13.1448C10.3382 13.2176 10.2172 13.2845 10.0942 13.3472C9.9712 13.4099 9.8202 13.4868 9.6792 13.5495C9.5382 13.6122 9.3872 13.6699 9.2382 13.7245C9.1142 13.769 8.9882 13.8085 8.8622 13.8469C8.65497 13.9086 8.44468 13.9593 8.2322 13.9987C8.1072 14.023 7.9802 14.0423 7.8532 14.0585C7.7262 14.0747 7.6202 14.0858 7.5042 14.0959C7.4132 14.104 7.3212 14.108 7.2302 14.115C7.0172 14.1343 6.8042 14.1201 6.5902 14.1252C6.5032 14.1252 6.4162 14.1201 6.3292 14.1131C6.2222 14.104 6.1152 14.0907 6.0072 14.0786C5.8992 14.0665 5.8132 14.0564 5.7172 14.0402C5.5622 14.0119 5.4082 13.9816 5.2542 13.9482C5.02051 13.8944 4.79011 13.8267 4.5642 13.7457C4.34502 13.6706 4.13004 13.5835 3.9202 13.4848C3.7892 13.4221 3.6592 13.3593 3.5322 13.2905C3.3742 13.2035 3.2202 13.1104 3.0642 13.0204C4.35606 13.1639 5.65219 12.7909 6.6762 11.9812C6.14435 11.9637 5.63202 11.7744 5.2142 11.441C4.95091 11.2324 4.7336 10.9705 4.5762 10.672C4.502 10.5376 4.44232 10.3954 4.3982 10.248C4.75626 10.3187 5.12565 10.3042 5.4772 10.2056C5.11229 10.1247 4.77022 9.96122 4.47666 9.72747C4.18311 9.49371 3.94568 9.19573 3.7822 8.85588C3.60936 8.51187 3.52737 8.1285 3.5442 7.74297C3.83606 7.9063 4.15813 8.00687 4.4902 8.03839C4.53735 8.04733 4.58555 8.04904 4.6332 8.04346C4.11851 7.68715 3.75561 7.14753 3.61695 6.53236C3.47829 5.91718 3.57408 5.27168 3.8852 4.72484C4.41091 5.37574 5.04556 5.92816 5.7602 6.35685C6.59918 6.85849 7.53306 7.17599 8.5012 7.28871C8.6492 7.3049 8.8012 7.31903 8.9522 7.32712L8.9442 7.2624C8.9322 7.17944 8.9162 7.09541 8.9082 7.01144C8.89706 6.92251 8.89138 6.83295 8.8912 6.74331C8.89559 6.23306 9.054 5.73638 9.3452 5.31977C9.41066 5.22763 9.4818 5.13976 9.5582 5.0567C9.82066 4.77343 10.145 4.55623 10.5052 4.42237C10.6724 4.36161 10.8453 4.31817 11.0212 4.29281C11.0742 4.28472 11.1272 4.28276 11.1812 4.27972C11.2812 4.27972 11.3812 4.26962 11.4812 4.27367C11.5679 4.2782 11.6544 4.28729 11.7402 4.30097C11.8736 4.32259 12.0048 4.35643 12.1322 4.40212C12.2779 4.45129 12.4189 4.51401 12.5532 4.58935C12.7149 4.68172 12.8664 4.79127 13.0052 4.91615C13.0492 4.9546 13.0892 4.99803 13.1292 5.04052C13.1346 5.04783 13.1422 5.05324 13.1508 5.05596C13.1594 5.05868 13.1686 5.0586 13.1772 5.05571C13.3372 5.01322 13.4982 4.97477 13.6582 4.92924C13.86 4.86997 14.0566 4.79418 14.2462 4.70261C14.3932 4.6328 14.5352 4.55186 14.6792 4.47597L14.7002 4.46288C14.5285 5.02858 14.1578 5.51091 13.6582 5.81861C13.6722 5.8348 13.6902 5.82669 13.7042 5.82466C13.7832 5.81353 13.8622 5.80345 13.9392 5.78625C14.0932 5.75287 14.2472 5.71843 14.3992 5.67695C14.6079 5.61931 14.8119 5.54523 15.0092 5.45538C15.0186 5.45194 15.0283 5.44961 15.0382 5.44834C15.0042 5.49488 14.9742 5.54032 14.9432 5.58383Z" fill="#FFFFFF"/>
</svg>
