<svg width="30" height="31" viewBox="0 0 30 31" fill="none" xmlns="http://www.w3.org/2000/svg">
<path d="M25.6171 5.35118C24.2356 3.96351 22.5903 2.86336 20.7772 2.11483C18.9641 1.36631 17.0194 0.98438 15.0565 0.991303C6.83136 0.991303 0.128076 7.66045 0.120542 15.8479C0.120542 18.4702 0.809894 21.0213 2.11138 23.2799L0 30.9819L7.91813 28.9163C10.1086 30.1026 12.5626 30.7244 15.0565 30.7251H15.064C23.2911 30.7251 29.9925 24.0559 30 15.861C30.0019 13.9079 29.6154 11.9738 28.8629 10.1701C28.1103 8.3663 27.0066 6.72856 25.6153 5.35118H25.6171ZM15.0565 28.2096C12.8321 28.2104 10.6486 27.6147 8.73556 26.4852L8.28352 26.2152L3.58614 27.4411L4.84053 22.8807L4.54671 22.4102C3.30325 20.4427 2.64562 18.1647 2.65005 15.8404C2.65005 9.04377 8.21949 3.49926 15.064 3.49926C16.6946 3.49635 18.3097 3.81468 19.8161 4.43589C21.3225 5.0571 22.6904 5.96891 23.841 7.11875C24.9957 8.26411 25.911 9.62563 26.5343 11.1248C27.1575 12.624 27.4763 14.2311 27.4724 15.8535C27.4648 22.6745 21.8954 28.2096 15.0565 28.2096ZM21.8653 18.9613C21.4942 18.7757 19.6616 17.8779 19.3169 17.7504C18.9741 17.6286 18.7236 17.5648 18.4788 17.936C18.2283 18.3052 17.5126 19.1468 17.2978 19.3886C17.0831 19.6379 16.8609 19.6661 16.4879 19.4824C16.1169 19.2949 14.9134 18.905 13.4894 17.6361C12.3782 16.652 11.6342 15.4336 11.412 15.0644C11.1973 14.6932 11.3913 14.4946 11.5777 14.309C11.7416 14.144 11.9488 13.8741 12.1352 13.6604C12.3236 13.4468 12.3857 13.2893 12.5082 13.0419C12.6306 12.7907 12.5722 12.577 12.4799 12.3915C12.3857 12.2059 11.6418 10.3746 11.3272 9.63608C11.0259 8.90694 10.7189 9.00816 10.4891 8.99878C10.2744 8.98566 10.0239 8.98566 9.77335 8.98566C9.58418 8.99034 9.39803 9.03389 9.22657 9.11356C9.05511 9.19323 8.90205 9.30731 8.77699 9.44864C8.4342 9.81978 7.47551 10.7176 7.47551 12.5489C7.47551 14.3802 8.81278 16.1403 9.00113 16.3896C9.18571 16.6389 11.6267 20.3858 15.3729 21.9978C16.2582 22.3821 16.955 22.6089 17.4994 22.7813C18.394 23.0662 19.202 23.0231 19.8462 22.9313C20.5619 22.8226 22.0517 22.0316 22.3663 21.1637C22.6752 20.294 22.6752 19.5517 22.581 19.3961C22.4887 19.2387 22.2382 19.1468 21.8653 18.9613Z" fill="#00E676"/>
</svg>
