<svg width="19" height="19" viewBox="0 0 19 19" fill="none" xmlns="http://www.w3.org/2000/svg">
<path d="M17.9662 3.86306C17.7258 2.78835 17.1295 1.82908 16.2762 1.14443C15.3565 0.381125 14.1975 -0.0243805 13.0082 0.00113473C11.6922 0.00619355 10.3762 0.00113473 9.0592 0.00113473H5.0662C4.21034 -0.0165972 3.3654 0.197922 2.6192 0.622372C1.81847 1.04934 1.15076 1.69304 0.690597 2.48164C0.230429 3.27023 -0.00409366 4.17263 0.0132018 5.08824C-0.0117982 7.80685 0.00620126 10.5255 0.00720126 13.2431C-0.00740978 14.0995 0.204945 14.9443 0.622199 15.6895C1.0435 16.4968 1.67777 17.17 2.45453 17.6344C3.23129 18.0988 4.1201 18.3361 5.0222 18.3201C7.7142 18.3474 10.4062 18.3292 13.0972 18.3252C14.2729 18.3412 15.4145 17.9253 16.3102 17.1546C16.8865 16.6797 17.3487 16.0787 17.6619 15.3967C17.9751 14.7147 18.1311 13.9697 18.1182 13.2178C18.1249 10.5144 18.1232 7.81094 18.1132 5.10751C18.1091 4.68851 18.0598 4.27124 17.9662 3.86306ZM15.5422 10.8979C15.5465 11.4011 15.4791 11.9023 15.3422 12.3861C15.2644 12.6773 15.1058 12.94 14.8852 13.143C14.6645 13.3459 14.3911 13.4807 14.0972 13.5315C13.6264 13.6233 13.1486 13.6734 12.6692 13.6812C11.5102 13.7227 10.3512 13.753 9.1922 13.7824H9.1402V13.7915C8.2232 13.7682 7.3072 13.753 6.3912 13.7176C5.8162 13.6954 5.2422 13.6509 4.6682 13.6003C4.33709 13.5905 4.01103 13.5156 3.7082 13.3797C3.48945 13.2726 3.29742 13.1168 3.14644 12.9241C2.99546 12.7314 2.88941 12.5067 2.8362 12.2668C2.74232 11.8376 2.68213 11.4014 2.6562 10.9626L2.6922 6.958C2.70938 6.60658 2.76916 6.2587 2.8702 5.92203C2.9532 5.63522 3.11277 5.37705 3.33137 5.17605C3.54996 4.97506 3.81911 4.83894 4.1092 4.78269C4.55804 4.69738 5.01273 4.64737 5.4692 4.633C7.0842 4.53182 8.7012 4.53176 10.3182 4.54592C10.8242 4.55199 11.3312 4.56423 11.8372 4.58952C12.4152 4.6192 12.9922 4.65935 13.5682 4.70994C13.8917 4.72139 14.2099 4.7962 14.5052 4.9304C14.7079 5.02802 14.8876 5.16842 15.0323 5.34205C15.177 5.51567 15.2833 5.7185 15.3442 5.9371C15.477 6.41143 15.5443 6.9021 15.5442 7.39509C15.5449 8.56672 15.5452 9.73433 15.5452 10.8979H15.5422Z" fill="#C20C0D"/>
<path d="M7.79932 11.1426L11.1993 9.15863L7.79932 7.1745V11.1426Z" fill="#C20C0D"/>
</svg>
