<svg width="18" height="18" viewBox="0 0 18 18" fill="none" xmlns="http://www.w3.org/2000/svg">
<path d="M0 13.0177V4.99226C0 2.24751 2.24751 0 4.99227 0H13.0077C15.7525 0 18 2.24751 18 4.99226V13.0077C18 15.7525 15.7525 18 13.0077 18H4.99227C2.24751 18.0099 0 15.7624 0 13.0177Z" fill="#BF1B27"/>
<path d="M13.9924 7.89593C13.893 7.90588 13.8035 7.90588 13.704 7.90588C12.6499 7.90588 11.6753 7.37881 11.0985 6.49372V11.2871C11.0985 13.2462 9.51727 14.8274 7.55815 14.8274C5.59904 14.8274 4.01782 13.2462 4.01782 11.2871C4.01782 9.32797 5.59904 7.74676 7.55815 7.74676C7.62777 7.74676 7.70732 7.75671 7.77694 7.75671V9.50698C7.70732 9.49703 7.63771 9.48709 7.55815 9.48709C6.56368 9.48709 5.74821 10.2926 5.74821 11.297C5.74821 12.3014 6.55373 13.107 7.55815 13.107C8.55263 13.107 9.43771 12.3213 9.43771 11.3169L9.4576 3.18213H11.1283C11.2874 4.68378 12.4907 5.84732 13.9924 5.95671V7.89593Z" fill="#11223B"/>
</svg>
