<svg width="19" height="19" viewBox="0 0 19 19" fill="none" xmlns="http://www.w3.org/2000/svg">
<path d="M18.1152 5.11062C18.1105 4.6906 18.0608 4.2723 17.9672 3.86308C17.7263 2.78863 17.1297 1.82972 16.2762 1.14544C15.3569 0.381294 14.1977 -0.0246134 13.0082 0.00115568C11.6922 0.00621451 10.3762 0.00115568 9.0602 0.00115568C7.72687 0.00115568 6.39553 0.00115568 5.0662 0.00115568C4.21042 -0.0158374 3.36567 0.198634 2.6192 0.622393C1.81847 1.04936 1.15076 1.69306 0.690597 2.48166C0.230429 3.27025 -0.00409366 4.17265 0.0132018 5.08826C-0.0117982 7.80687 0.00620126 10.5255 0.00720126 13.2441C-0.00630762 14.1001 0.20598 14.9442 0.622199 15.6896C1.04359 16.4967 1.67788 17.1699 2.45462 17.6343C3.23136 18.0987 4.12013 18.336 5.0222 18.3201C6.2952 18.3333 7.5682 18.3201 8.8412 18.3201C8.8412 18.311 8.8352 18.308 8.8362 18.2979C8.8362 18.2443 8.8422 18.1907 8.8422 18.1381C8.8422 15.6781 8.84387 13.2189 8.8472 10.7603C8.8472 10.6025 8.8072 10.5651 8.6552 10.5691C8.2482 10.5802 7.8402 10.5691 7.4322 10.5761C7.3112 10.5761 7.2822 10.5408 7.2832 10.4224C7.28787 9.46862 7.28787 8.51486 7.2832 7.56111C7.2832 7.4397 7.3072 7.39418 7.4392 7.39721C7.8572 7.40632 8.2752 7.3972 8.6942 7.40327C8.8162 7.40327 8.8392 7.36884 8.8412 7.25148C8.8492 6.6515 8.8062 6.05157 8.8682 5.45261C8.91065 4.73502 9.21199 4.05815 9.71504 3.55048C10.2181 3.04282 10.8879 2.73964 11.5972 2.69854C12.2622 2.62872 12.9302 2.68136 13.5972 2.67124C13.8672 2.67124 14.1372 2.67731 14.4072 2.67124C14.5072 2.67124 14.5462 2.69449 14.5462 2.80376C14.5422 3.62329 14.5422 4.44288 14.5462 5.26241C14.5462 5.36358 14.5192 5.39989 14.4122 5.39888C13.8772 5.39281 13.3422 5.39888 12.8122 5.39888C12.7217 5.38733 12.6297 5.39608 12.5429 5.42445C12.4561 5.45281 12.3764 5.50009 12.3097 5.56302C12.2429 5.62595 12.1906 5.70304 12.1565 5.78867C12.1223 5.87429 12.1072 5.96646 12.1122 6.05865C12.0942 6.47044 12.1062 6.88314 12.0982 7.29594C12.0982 7.41836 12.1692 7.39721 12.2422 7.39721C12.9682 7.39721 13.6942 7.40227 14.4192 7.39721C14.5652 7.39721 14.5922 7.44169 14.5912 7.57827C14.5852 8.52259 14.5852 9.46695 14.5912 10.4113C14.5912 10.5428 14.5602 10.5822 14.4262 10.5812C13.6582 10.5751 12.8902 10.5812 12.1262 10.5761C12.0162 10.5761 11.9832 10.6025 11.9832 10.7168C11.9872 13.2186 11.9872 15.7206 11.9832 18.223C11.9832 18.2494 11.9882 18.2766 11.9902 18.303C11.9902 18.3141 11.9852 18.3171 11.9852 18.3283H13.1022C13.7641 18.3295 14.4198 18.198 15.0312 17.9415C15.6426 17.6849 16.1977 17.3082 16.6645 16.8334C17.1312 16.3585 17.5004 15.7947 17.7506 15.1747C18.0008 14.5546 18.1271 13.8906 18.1222 13.2209C18.1282 10.5175 18.1259 7.81405 18.1152 5.11062Z" fill="#FFFFFF"/>
</svg>
