<svg width="24" height="24" viewBox="0 0 24 24" fill="none" xmlns="http://www.w3.org/2000/svg">
<path d="M5.89245 5.31152L11.5 10.9189L17.0845 5.33459C17.1823 5.23043 17.3002 5.1471 17.4311 5.0896C17.562 5.03211 17.7031 5.00163 17.846 5C18.152 5 18.4455 5.12156 18.6619 5.33793C18.8783 5.55431 18.9998 5.84778 18.9998 6.15378C19.0025 6.29523 18.9763 6.43574 18.9227 6.56669C18.8691 6.69764 18.7893 6.81626 18.6883 6.91527L13.0461 12.4995L18.6883 18.1415C18.8784 18.3275 18.99 18.5795 18.9998 18.8453C18.9998 19.1513 18.8783 19.4448 18.6619 19.6612C18.4455 19.8775 18.152 19.9991 17.846 19.9991C17.6989 20.0052 17.5522 19.9806 17.4152 19.927C17.2781 19.8734 17.1537 19.7918 17.0499 19.6876L11.5 14.0802L5.90399 19.676C5.8065 19.7767 5.69003 19.8571 5.5613 19.9126C5.43258 19.968 5.29415 19.9974 5.15401 19.9991C4.84799 19.9991 4.55452 19.8775 4.33813 19.6612C4.12175 19.4448 4.00019 19.1513 4.00019 18.8453C3.9975 18.7039 4.02374 18.5633 4.07731 18.4324C4.13089 18.3014 4.21065 18.1828 4.31172 18.0838L9.95388 12.4995L4.31172 6.85758C4.12155 6.67154 4.01004 6.41962 4.00019 6.15378C4.00019 5.84778 4.12175 5.55431 4.33813 5.33793C4.55452 5.12156 4.84799 5 5.15401 5C5.43092 5.00346 5.6963 5.11538 5.89245 5.31152Z" fill="white"/>
</svg>
