<svg id="Capa_1" data-name="Capa 1" xmlns="http://www.w3.org/2000/svg" viewBox="0 0 116.94 134.81"><defs><style>.cls-1{fill:#999;}.cls-2{fill:#12233c;}.cls-3{fill:#c20c0d;}.cls-4{fill:#fff;}.cls-5{fill:#ccc;}.cls-6{fill:gray;}</style></defs><path class="cls-1" d="M105,85.66a3.21,3.21,0,0,0-.67-1.31,3.45,3.45,0,0,0-1.12-.9,4.21,4.21,0,0,0-1.43-.45l-.47-.06-.62-.1c-1.4-.21-2.82-.42-4.26-.61a106.45,106.45,0,0,0,6.42-36.62l-.2-4.7-4.69.2c-.44,0-.9,0-1.36,0A38.7,38.7,0,0,1,85,39.27a56.46,56.46,0,0,1-13.35-6.35,55.34,55.34,0,0,1-6.59-4.85l-3.15-2.86-3.15,2.86A56.23,56.23,0,0,1,52.16,33a57,57,0,0,1-13.35,6.33,38.81,38.81,0,0,1-11.5,1.86c-.46,0-.91,0-1.36,0l-4.69-.2-.2,4.7A106.46,106.46,0,0,0,27.5,82.28l-1.11.14-2.25.31-.59.08-.17,0L22.06,83a4.59,4.59,0,0,0-1.28.35,3.24,3.24,0,0,0-1.88,2.34,4.49,4.49,0,0,0-.09.92v9.76a4,4,0,0,0,.1.94,3.1,3.1,0,0,0,.75,1.46,3,3,0,0,0,1.7.88,3.22,3.22,0,0,0,.63,0,4.59,4.59,0,0,0,.72,0c1.31-.18,1.95-.27,3.26-.43l.24,0L28.36,99c.88-.11,1.31-.15,2.21-.25l1.25-.14,2.2-.22.52,0,.63-.06c.36.58.73,1.16,1.1,1.74a75.5,75.5,0,0,0,23.17,22.86l2.5,1.56,2.49-1.56a76.88,76.88,0,0,0,7.7-5.54A75.84,75.84,0,0,0,87.55,100q.57-.87,1.11-1.74c4.41.38,7.78.76,9.82,1l.45.06,1.25.16,2.2.31,2.72.38V86.73A4.18,4.18,0,0,0,105,85.66Z"/><path class="cls-2" d="M60,122a72.7,72.7,0,0,1-7.64-5.5,75.51,75.51,0,0,1-15.22-17C21,74.76,22.06,45.94,22.07,45.65L22.23,42l3.68.15c.47,0,.93,0,1.4,0a39.54,39.54,0,0,0,11.8-1.91A57.59,57.59,0,0,0,52.7,33.8a55.63,55.63,0,0,0,6.76-5l2.48-2.25,2.47,2.25a57.22,57.22,0,0,0,6.72,5,58.09,58.09,0,0,0,13.6,6.45,39.75,39.75,0,0,0,11.83,1.92c.47,0,.94,0,1.4,0l3.68-.15.16,3.68c0,.29,1,29.15-15.09,53.83a75.2,75.2,0,0,1-15.22,17,73.3,73.3,0,0,1-7.6,5.46l-2,1.23Z"/><path class="cls-3" d="M60.7,120.82a72.56,72.56,0,0,1-7.5-5.4A73.76,73.76,0,0,1,38.26,98.67C22.43,74.4,23.42,46,23.43,45.71l.1-2.33,2.32.1,1.46,0a40.87,40.87,0,0,0,12.2-2A59.38,59.38,0,0,0,53.43,35a58.66,58.66,0,0,0,6.94-5.12l1.57-1.42,1.56,1.42a58.19,58.19,0,0,0,6.9,5.09,59.47,59.47,0,0,0,13.92,6.61,41.14,41.14,0,0,0,12.24,2c.49,0,1,0,1.46,0l2.32-.1.1,2.33c0,.28,1,28.69-14.87,53a73.82,73.82,0,0,1-14.94,16.72,73.19,73.19,0,0,1-7.46,5.36l-1.23.78Z"/><path class="cls-2" d="M99.47,45.75l0-1.36-1.36.06-1.5,0a41.76,41.76,0,0,1-12.53-2,60,60,0,0,1-14.15-6.71,59.35,59.35,0,0,1-7-5.19l-.91-.83-.92.83A57,57,0,0,1,54,35.76a59.56,59.56,0,0,1-14.15,6.7,41.8,41.8,0,0,1-12.49,2l-1.5,0-1.35-.06-.06,1.36c0,.28-1,28.37,14.67,52.39a72.54,72.54,0,0,0,14.75,16.53A70.53,70.53,0,0,0,61.21,120l.73.45.72-.45A72.23,72.23,0,0,0,70,114.71a72.82,72.82,0,0,0,14.75-16.5C100.5,74.13,99.49,46,99.47,45.75Z"/><path class="cls-4" d="M86.91,49.15c-2.35-.1-12.92,0-12.92,0l-.3.22,2.08,26.55,4,.19L80,65.41l5.28-.63,1.16.85,1.78-.36.94-.75a13.62,13.62,0,0,0,.22-2.89V51.54A2.55,2.55,0,0,0,86.91,49.15ZM80,62.44V52.7h2.76c.29,0,.47.08.51.26a2.65,2.65,0,0,1,.06.58v8a2.8,2.8,0,0,1-.06.61c0,.18-.22.27-.51.27Z"/><path class="cls-4" d="M57.42,54.36H61v8.56s-.29.56,1,.53,1.43-.06,1.43-.06l.36-.74-.21-8.14.46-.15h3.07v9.45L66.3,65.1,64.07,65l0,5.82-.72.19-2.23-1.11L60.45,65l-1.83-.64Z"/><path class="cls-4" d="M50.35,51.58s1.19-2.78-3.82-2.49a86.67,86.67,0,0,1-9.54,0s-2.89.79-1.49,2.52l1.35,2.58V74.8L49.2,76.22a.65.65,0,0,0,.37-.17h0c.48-.37,1.25-1.49,1.25-4.92C50.83,66.15,50.35,51.58,50.35,51.58ZM40.94,71.72V53.54A2.14,2.14,0,0,1,41,53c.06-.18.25-.26.6-.26H44c.3,0,.47.08.51.26a2.15,2.15,0,0,1,.07.58V71.72a2.27,2.27,0,0,1-.07.61q-.06.27-.51.27H41.62c-.35,0-.54-.09-.6-.27A2.25,2.25,0,0,1,40.94,71.72Z"/><path class="cls-5" d="M47.14,51.13a2.45,2.45,0,0,0-1.52-.38h-5.8a6.52,6.52,0,0,0-1,.07,1.17,1.17,0,0,0-.82.61,1.4,1.4,0,0,1,.87-.09,2.74,2.74,0,0,1,.87.32,2.51,2.51,0,0,1,.65.52c.15.19.2.35.14.48a1.65,1.65,0,0,0-.08.42c0,.15,0,.3,0,.46V71.72a3.11,3.11,0,0,0,.15,1c.1.29.43.44,1,.44H44a1.06,1.06,0,0,0,.64-.15,1.14,1.14,0,0,0,.32-.42.48.48,0,0,1,.55-.33,2.25,2.25,0,0,1,.89.25,2.93,2.93,0,0,1,.79.61.86.86,0,0,1,.24.77,1.53,1.53,0,0,0,.21-.71c0-.34,0-.64,0-.9V53C47.63,52,47.47,51.38,47.14,51.13ZM44.53,71.72a2.27,2.27,0,0,1-.07.61q-.06.27-.51.27H41.62c-.35,0-.54-.09-.6-.27a2.25,2.25,0,0,1-.08-.61V53.54A2.14,2.14,0,0,1,41,53c.06-.18.25-.26.6-.26H44c.3,0,.47.08.51.26a2.15,2.15,0,0,1,.07.58Z"/><path class="cls-5" d="M50.72,51a2.43,2.43,0,0,0-.48-1.15,2.34,2.34,0,0,0-1-.74,4.89,4.89,0,0,0-1.79-.27H38a5.08,5.08,0,0,0-1.81.27,2.34,2.34,0,0,0-1,.74A2.63,2.63,0,0,0,34.72,51a8.3,8.3,0,0,0-.11,1.47v20.4a8.5,8.5,0,0,0,.11,1.5,2.63,2.63,0,0,0,.46,1.15,2.27,2.27,0,0,0,1,.74A5.06,5.06,0,0,0,38,76.5h9.38a4.86,4.86,0,0,0,1.79-.28l.37-.17h0a2.16,2.16,0,0,0,.66-.57,2.43,2.43,0,0,0,.48-1.15,8.5,8.5,0,0,0,.11-1.5V52.43A8.3,8.3,0,0,0,50.72,51ZM48.88,75.31a2.32,2.32,0,0,1-.82-.31,1.52,1.52,0,0,1-.55-.55.68.68,0,0,1-.13-.55,1.13,1.13,0,0,1-.61.51,3.23,3.23,0,0,1-1,.13H39.86a2.37,2.37,0,0,1-1.64-.43,2.72,2.72,0,0,1-.45-1.86V53A3.67,3.67,0,0,1,38,51.43a1.69,1.69,0,0,1-.88.16,2.71,2.71,0,0,1-.91-.23,1.49,1.49,0,0,1-.62-.48.57.57,0,0,1,0-.63,2,2,0,0,1,.89-.65A4.45,4.45,0,0,1,38,49.37h9.38a4.64,4.64,0,0,1,1.54.21,1.92,1.92,0,0,1,1.31,1.59,8.11,8.11,0,0,1,.09,1.26v20.4a6.55,6.55,0,0,1-.11,1.33,2.11,2.11,0,0,1-.46,1A1.38,1.38,0,0,1,48.88,75.31Z"/><path class="cls-5" d="M63.38,62.77a1.43,1.43,0,0,1,0,.38c0,.11-.13.16-.31.16H61.57c-.2,0-.33-.05-.36-.16a1.4,1.4,0,0,1-.05-.38V54.16H57.28V63a5.37,5.37,0,0,0,.07.94,1.56,1.56,0,0,0,.28.71,1.28,1.28,0,0,0,.64.45,3.38,3.38,0,0,0,1.11.15h1v5.85h3.84V65.28h1a3.27,3.27,0,0,0,1.1-.15,1.33,1.33,0,0,0,.64-.45,1.47,1.47,0,0,0,.29-.71,5.37,5.37,0,0,0,.07-.94V54.16H63.38Zm.23.54c0-.07.13-.13.3-.16a1.63,1.63,0,0,1,.54,0,1.17,1.17,0,0,1,.51.22.55.55,0,0,1,.2.51.93.93,0,0,0,.12-.45c0-.19,0-.32,0-.4V55.45l-1.63-.94H67V63a4.07,4.07,0,0,1-.06.73,1.56,1.56,0,0,1-.22.58.55.55,0,0,1-.37.19,1.3,1.3,0,0,1-.52,0,1.09,1.09,0,0,1-.46-.22.45.45,0,0,1-.16-.42.85.85,0,0,1-.44.35,2.92,2.92,0,0,1-.69.07H62.26l1.63.63v5.85l-1.63-.94V64.3H60.5a4.22,4.22,0,0,1-.57,0,.85.85,0,0,1-.4-.16.79.79,0,0,1-.23-.38,2.41,2.41,0,0,1-.08-.69V55.45l-1.65-.94h3.3v8.26a1.74,1.74,0,0,0,.1.63c.06.18.26.26.6.26H63a.72.72,0,0,0,.4-.09A.49.49,0,0,0,63.61,63.31Z"/><path class="cls-5" d="M86,51.13a2.45,2.45,0,0,0-1.52-.38H76.86l2.68,1.37V63h3.24a1.14,1.14,0,0,0,.65-.14.76.76,0,0,0,.31-.43.49.49,0,0,1,.49-.37,1.59,1.59,0,0,1,.82.21,2.72,2.72,0,0,1,.74.62,1,1,0,0,1,.28.76,1,1,0,0,0,.31-.65,6,6,0,0,0,.08-.88V53C86.46,52,86.29,51.38,86,51.13ZM83.35,61.56a2.8,2.8,0,0,1-.06.61c0,.18-.22.27-.51.27H80V52.7h2.76c.29,0,.47.08.51.26a2.65,2.65,0,0,1,.06.58Z"/><path class="cls-5" d="M89.55,51a2.65,2.65,0,0,0-.48-1.15,2.4,2.4,0,0,0-1-.74,4.94,4.94,0,0,0-1.8-.27H73.69V76.5H80V66h6.21a4.94,4.94,0,0,0,1.8-.27,2.4,2.4,0,0,0,1-.74,2.65,2.65,0,0,0,.48-1.15,9.62,9.62,0,0,0,.11-1.51V52.43A9.37,9.37,0,0,0,89.55,51Zm-.37,11.32c0,.26,0,.52,0,.79a5.29,5.29,0,0,1-.13.78,2.26,2.26,0,0,1-.26.65.81.81,0,0,1-.45.38,1.5,1.5,0,0,1-.89.17,1.86,1.86,0,0,1-.79-.27,1.37,1.37,0,0,1-.51-.53.66.66,0,0,1-.05-.59.83.83,0,0,1-.51.42,3.55,3.55,0,0,1-1,.11H76.86l2.68,1.19V75.92l-2.68-1.53V50.75l-2.69-1.38H86.23a4.6,4.6,0,0,1,1.54.21,2.06,2.06,0,0,1,.9.61,2.11,2.11,0,0,1,.41,1,7,7,0,0,1,.1,1.26Z"/><path class="cls-2" d="M61.94,31.55a58.62,58.62,0,0,1-7.26,5.36v76.71a69.08,69.08,0,0,0,7.26,5.23,70.23,70.23,0,0,0,7.21-5.19V36.88A57.63,57.63,0,0,1,61.94,31.55Z"/><path class="cls-2" d="M25.76,45.8S24.6,73.47,40.21,97.4V43.76A42.46,42.46,0,0,1,25.76,45.8Z"/><path class="cls-2" d="M98.12,45.8a42.47,42.47,0,0,1-14.5-2V97.46C99.28,73.51,98.12,45.8,98.12,45.8Z"/><path class="cls-3" d="M40.21,43.76V97.4a71.28,71.28,0,0,0,14.47,16.22V36.91A61.43,61.43,0,0,1,40.21,43.76Z"/><path class="cls-3" d="M83.62,97.46V43.75a61.82,61.82,0,0,1-14.47-6.87v76.78A71,71,0,0,0,83.62,97.46Z"/><path class="cls-4" d="M86.71,49.15c-2.35-.1-12.92,0-12.92,0l-.3.22,2.09,26.55,4,.19.23-10.7,5.27-.63,1.16.85,1.79-.36.93-.75a13.62,13.62,0,0,0,.22-2.89V51.54A2.55,2.55,0,0,0,86.71,49.15ZM79.83,62.44V52.7h2.75c.3,0,.47.08.51.26a2.63,2.63,0,0,1,.07.58v8a2.77,2.77,0,0,1-.07.61q-.06.27-.51.27Z"/><path class="cls-4" d="M57.22,54.36h3.63v8.56s-.3.56,1,.53,1.43-.06,1.43-.06l.36-.74-.21-8.14.46-.15h3.08v9.45l-.82,1.29L63.87,65l0,5.82-.72.19-2.24-1.11L60.25,65l-1.82-.64Z"/><path class="cls-4" d="M50.16,51.58s1.18-2.78-3.83-2.49a86.53,86.53,0,0,1-9.53,0s-2.9.79-1.5,2.52l1.35,2.58V74.8L49,76.22a.64.64,0,0,0,.36-.17h0c.49-.37,1.26-1.49,1.26-4.92C50.64,66.15,50.16,51.58,50.16,51.58ZM40.75,71.72V53.54a1.81,1.81,0,0,1,.08-.58c.05-.18.25-.26.59-.26h2.33c.3,0,.47.08.52.26a2.65,2.65,0,0,1,.06.58V71.72a2.8,2.8,0,0,1-.06.61c-.05.18-.22.27-.52.27H41.42c-.34,0-.54-.09-.59-.27A1.92,1.92,0,0,1,40.75,71.72Z"/><path class="cls-5" d="M46.94,51.13a2.45,2.45,0,0,0-1.52-.38H39.63a6.55,6.55,0,0,0-1,.07,1.19,1.19,0,0,0-.82.61,1.41,1.41,0,0,1,.87-.09,2.89,2.89,0,0,1,.88.32,2.46,2.46,0,0,1,.64.52c.16.19.21.35.14.48a1.65,1.65,0,0,0-.08.42c0,.15,0,.3,0,.46V71.72a3.42,3.42,0,0,0,.14,1c.1.29.43.44,1,.44h2.33A1.09,1.09,0,0,0,44.4,73a1.41,1.41,0,0,0,.32-.42q.09-.34.54-.33a2.25,2.25,0,0,1,.89.25,2.65,2.65,0,0,1,.79.61.86.86,0,0,1,.24.77,1.32,1.32,0,0,0,.21-.71c0-.34,0-.64,0-.9V53C47.44,52,47.27,51.38,46.94,51.13ZM44.33,71.72a2.8,2.8,0,0,1-.06.61c-.05.18-.22.27-.52.27H41.42c-.34,0-.54-.09-.59-.27a1.92,1.92,0,0,1-.08-.61V53.54a1.81,1.81,0,0,1,.08-.58c.05-.18.25-.26.59-.26h2.33c.3,0,.47.08.52.26a2.65,2.65,0,0,1,.06.58Z"/><path class="cls-5" d="M50.52,51A2.43,2.43,0,0,0,50,49.81a2.37,2.37,0,0,0-1-.74,4.94,4.94,0,0,0-1.8-.27H37.83a5,5,0,0,0-1.8.27,2.32,2.32,0,0,0-1.05.74A2.76,2.76,0,0,0,34.52,51a9.37,9.37,0,0,0-.11,1.47v20.4a9.58,9.58,0,0,0,.11,1.5A2.76,2.76,0,0,0,35,75.48a2.25,2.25,0,0,0,1.05.74,5,5,0,0,0,1.8.28h9.38a4.92,4.92,0,0,0,1.8-.28,3,3,0,0,0,.36-.17h0a2.16,2.16,0,0,0,.66-.57,2.43,2.43,0,0,0,.48-1.15,8.44,8.44,0,0,0,.12-1.5V52.43A8.25,8.25,0,0,0,50.52,51ZM48.69,75.31a2.25,2.25,0,0,1-.82-.31,1.56,1.56,0,0,1-.56-.55.72.72,0,0,1-.13-.55,1.13,1.13,0,0,1-.61.51,3.16,3.16,0,0,1-1,.13H39.66A2.33,2.33,0,0,1,38,74.11a2.72,2.72,0,0,1-.45-1.86V53a3.69,3.69,0,0,1,.25-1.53,1.67,1.67,0,0,1-.88.16,2.71,2.71,0,0,1-.91-.23,1.56,1.56,0,0,1-.62-.48.57.57,0,0,1-.05-.63,2,2,0,0,1,.89-.65,4.45,4.45,0,0,1,1.57-.23h9.38a4.64,4.64,0,0,1,1.54.21,1.92,1.92,0,0,1,1.31,1.59,8,8,0,0,1,.1,1.26v20.4A6.49,6.49,0,0,1,50,74.16a2,2,0,0,1-.46,1A1.37,1.37,0,0,1,48.69,75.31Z"/><path class="cls-5" d="M63.18,62.77a1.43,1.43,0,0,1,0,.38c0,.11-.13.16-.31.16H61.38c-.21,0-.33-.05-.37-.16a1.4,1.4,0,0,1,0-.38V54.16H57.08V63a5.37,5.37,0,0,0,.07.94,1.56,1.56,0,0,0,.28.71,1.33,1.33,0,0,0,.64.45,3.38,3.38,0,0,0,1.11.15h1v5.85H64V65.28h1a3.35,3.35,0,0,0,1.1-.15,1.35,1.35,0,0,0,.63-.45A1.58,1.58,0,0,0,67,64a6.56,6.56,0,0,0,.07-.94V54.16H63.18Zm.24.54c0-.07.12-.13.29-.16a1.63,1.63,0,0,1,.54,0,1.17,1.17,0,0,1,.51.22.58.58,0,0,1,.21.51,1.06,1.06,0,0,0,.11-.45,3.54,3.54,0,0,0,0-.4V55.45l-1.62-.94h3.27V63a4.07,4.07,0,0,1-.06.73,1.74,1.74,0,0,1-.21.58.6.6,0,0,1-.38.19,1.3,1.3,0,0,1-.52,0,1.09,1.09,0,0,1-.46-.22.42.42,0,0,1-.15-.42.87.87,0,0,1-.45.35,2.92,2.92,0,0,1-.69.07H62.06l1.63.63v5.85l-1.63-.94V64.3H60.3a4.48,4.48,0,0,1-.57,0,.77.77,0,0,1-.39-.16.74.74,0,0,1-.24-.38A2.41,2.41,0,0,1,59,63V55.45l-1.65-.94h3.3v8.26a1.74,1.74,0,0,0,.1.63c.06.18.27.26.61.26h1.45a.7.7,0,0,0,.4-.09A.51.51,0,0,0,63.42,63.31Z"/><path class="cls-5" d="M85.77,51.13a2.48,2.48,0,0,0-1.53-.38H76.66l2.69,1.37V63h3.23a1.1,1.1,0,0,0,.65-.14.72.72,0,0,0,.31-.43.49.49,0,0,1,.49-.37,1.59,1.59,0,0,1,.82.21,2.72,2.72,0,0,1,.74.62,1.06,1.06,0,0,1,.29.76.92.92,0,0,0,.3-.65,6,6,0,0,0,.08-.88V53C86.26,52,86.1,51.38,85.77,51.13ZM83.16,61.56a2.77,2.77,0,0,1-.07.61q-.06.27-.51.27H79.83V52.7h2.75c.3,0,.47.08.51.26a2.63,2.63,0,0,1,.07.58Z"/><path class="cls-5" d="M89.35,51a2.54,2.54,0,0,0-.48-1.15,2.4,2.4,0,0,0-1-.74A4.94,4.94,0,0,0,86,48.8H73.49V76.5h6.34V66H86a4.94,4.94,0,0,0,1.8-.27,2.4,2.4,0,0,0,1-.74,2.54,2.54,0,0,0,.48-1.15,9.62,9.62,0,0,0,.11-1.51V52.43A9.37,9.37,0,0,0,89.35,51ZM89,62.28c0,.26,0,.52,0,.79a4.24,4.24,0,0,1-.13.78,2.59,2.59,0,0,1-.25.65.88.88,0,0,1-.45.38,1.53,1.53,0,0,1-.9.17,1.86,1.86,0,0,1-.79-.27,1.37,1.37,0,0,1-.51-.53.63.63,0,0,1,0-.59.89.89,0,0,1-.51.42,3.68,3.68,0,0,1-1,.11H76.66l2.69,1.19V75.92l-2.69-1.53V50.75L74,49.37H86a4.56,4.56,0,0,1,1.54.21,2.06,2.06,0,0,1,.9.61,2.23,2.23,0,0,1,.42,1A8.11,8.11,0,0,1,89,52.43Z"/><path class="cls-2" d="M104,85.91a2.32,2.32,0,0,0-.48-.92,2.5,2.5,0,0,0-.81-.65,3,3,0,0,0-1.1-.33l-1.1-.15v0c-38.76-6-77,0-77,0h0L22.2,84a3.9,3.9,0,0,0-1,.27,2.17,2.17,0,0,0-.89.71,2.35,2.35,0,0,0-.41.91,4,4,0,0,0-.07.72v9.76a4,4,0,0,0,.07.73,2.07,2.07,0,0,0,.51,1,2,2,0,0,0,1.13.59,3.13,3.13,0,0,0,.46,0,4.38,4.38,0,0,0,.59,0c1.3-.18,2-.27,3.26-.43l.33-.06.54-.07h0l1.54-.18,2.21-.25,1.25-.13,2.22-.23.52,0,.68-.06c.88-.09,1.31-.13,2.19-.2l1.25-.11,2.19-.17.65,0,.56,0,.59,0a320,320,0,0,1,56.05,1.69l.45,0,1.25.17,2.21.31,1.57.22V86.73A3.61,3.61,0,0,0,104,85.91Z"/><path class="cls-4" d="M26.94,85.12a.62.62,0,0,0-.37-.18,1.92,1.92,0,0,0-.63,0c-1.32.16-2,.25-3.28.43a2.38,2.38,0,0,0-.63.16.86.86,0,0,0-.36.27.87.87,0,0,0-.16.37,2.15,2.15,0,0,0,0,.45v3.51a2.37,2.37,0,0,0,0,.41.52.52,0,0,0,.11.25.47.47,0,0,0,.24.13,2.39,2.39,0,0,0,.39.08l2.5.34c.13,0,.19.09.19.23v4a1.1,1.1,0,0,1,0,.18c0,.06-.07.09-.17.1l-.8.11c-.12,0-.19,0-.21,0a.34.34,0,0,1,0-.18v-3l-2.21.31v3.27a1.89,1.89,0,0,0,0,.44.57.57,0,0,0,.16.32.56.56,0,0,0,.36.17,1.92,1.92,0,0,0,.63,0c1.31-.18,2-.27,3.28-.43a2.61,2.61,0,0,0,.63-.16.9.9,0,0,0,.37-.26.82.82,0,0,0,.16-.37,2,2,0,0,0,0-.45V90.81a.81.81,0,0,0-.09-.34.41.41,0,0,0-.22-.19,1.37,1.37,0,0,0-.4-.12l-2.55-.36c-.1,0-.16,0-.17-.06a.26.26,0,0,1,0-.14V86.65a.34.34,0,0,1,0-.18c0-.06.09-.1.21-.11l.8-.11c.1,0,.15,0,.17.06a.9.9,0,0,1,0,.18v1.88l2.22-.28V85.88a1.94,1.94,0,0,0,0-.44A.57.57,0,0,0,26.94,85.12Z"/><path class="cls-6" d="M25.42,95.6h-.2v-4a.49.49,0,0,0-.46-.52l-2.49-.34-.34-.06a.37.37,0,0,1-.12-.07l0,0v0a1.71,1.71,0,0,1,0-.4V86.63H22v3.51a1.62,1.62,0,0,0,0,.32h0a1.29,1.29,0,0,0,.3.06l2.5.34a.69.69,0,0,1,.63.72Z"/><path class="cls-6" d="M22.26,97.05h-.18a.46.46,0,0,1-.2-.09.44.44,0,0,1-.09-.18,1.9,1.9,0,0,1,0-.37V93.46H22V96.4a1.55,1.55,0,0,0,0,.33.12.12,0,0,0,0,.08l.09,0a2.1,2.1,0,0,0,.48,0c1.31-.18,2-.27,3.28-.43a2.13,2.13,0,0,0,.51-.12l.08.18a2.17,2.17,0,0,1-.56.14c-1.33.16-2,.25-3.28.43Z"/><path class="cls-6" d="M25.22,88V86.49a1.1,1.1,0,0,0,0-.27.4.4,0,0,0-.4-.27h-.1l-.79.11,0-.2.91-.12h0a.6.6,0,0,1,.6.41,1.14,1.14,0,0,1,.05.33v1.32l1.32-.17,0,.2L25.33,88Z"/><path class="cls-4" d="M33.8,84.41a1,1,0,0,0-.4-.21,1.68,1.68,0,0,0-.65,0c-1.24.12-1.85.19-3.09.33a2.11,2.11,0,0,0-.65.17,1.44,1.44,0,0,0-.4.3,1.16,1.16,0,0,0-.2.4,1.7,1.7,0,0,0-.06.46V96.58l2.23-.25V90.74l1.25-.14v5.59L34.06,96V85.22a1.65,1.65,0,0,0-.06-.46A.77.77,0,0,0,33.8,84.41Zm-2,5.13-1.25.13V85.81a.58.58,0,0,1,0-.19c0-.05.09-.09.21-.1l.82-.09c.1,0,.15,0,.17.06a.55.55,0,0,1,0,.18Z"/><path class="cls-6" d="M28.65,96.25V85.83h.2V96l1.32-.15,0,.2-1.43.16Zm3.48-.38V90.28l-1.54.17,0-.2,1.77-.19v5.58l1.33-.13,0,.2-1.44.15Zm.2-6.62h-.2V85.67a1,1,0,0,0,0-.26.39.39,0,0,0-.41-.27l-.92.09,0-.2.95-.1a.6.6,0,0,1,.6.42,1,1,0,0,1,0,.32Z"/><path class="cls-4" d="M38.73,86l-1-2a.31.31,0,0,0-.24-.19,2,2,0,0,0-.35,0l-1.85.17V95.85l2.2-.2V86.56l1.26,2.17v6.82c.88-.08,1.32-.11,2.19-.17V83.45l-2.19.17Z"/><path class="cls-6" d="M39,95.23V88.65L37.48,86l.18-.1,1.56,2.69V95l1.3-.1,0,.2-1.41.11Z"/><rect class="cls-6" x="39.02" y="83.98" width="0.2" height="1.98"/><path class="cls-6" d="M35.56,95.53V84.28h.21v11l1.29-.12,0,.2-1.4.13Z"/><path class="cls-4" d="M44.47,83.21l-2.33.15V95.29c1.81-.13,2.71-.18,4.52-.28V93.86L44.47,94Z"/><path class="cls-6" d="M42.43,95V83.73h.2v11l3.64-.22v.2c-1.48.08-2.35.13-3.74.23Z"/><path class="cls-4" d="M53.13,83.1a.71.71,0,0,0-.37-.21,2.29,2.29,0,0,0-.63,0c-1.33,0-2,.07-3.33.13a2.39,2.39,0,0,0-.63.11.68.68,0,0,0-.36.24.76.76,0,0,0-.17.35,2,2,0,0,0,0,.44v9.77a2,2,0,0,0,0,.44.73.73,0,0,0,.17.34.7.7,0,0,0,.36.2,2.31,2.31,0,0,0,.63,0c1.33-.06,2-.09,3.33-.13a2.07,2.07,0,0,0,.63-.1.81.81,0,0,0,.37-.23.86.86,0,0,0,.16-.35,2,2,0,0,0,0-.44V83.88a2,2,0,0,0,0-.44A.77.77,0,0,0,53.13,83.1Zm-2,10.3a.57.57,0,0,1,0,.18s-.07.08-.17.09l-.82,0c-.12,0-.19,0-.21-.07a.39.39,0,0,1,0-.18V84.34a.41.41,0,0,1,0-.19q0-.08.21-.09l.82,0c.1,0,.16,0,.17.08a.47.47,0,0,1,0,.17Z"/><path class="cls-6" d="M48.63,94.61a2.41,2.41,0,0,1-.39,0,.51.51,0,0,1-.22-.12.41.41,0,0,1-.09-.2,1.38,1.38,0,0,1,0-.38V84.11a1.48,1.48,0,0,1,0-.38l.19,0a1.72,1.72,0,0,0,0,.34v9.77a1.65,1.65,0,0,0,0,.34.24.24,0,0,0,.06.11s0,0,.11,0a1.2,1.2,0,0,0,.34,0h.15l3.33-.14a1.57,1.57,0,0,0,.5-.07l.06.2a2.31,2.31,0,0,1-.55.08c-1.36,0-2,.07-3.33.13Zm3-1.22h-.2V84.28a.75.75,0,0,0,0-.26.42.42,0,0,0-.43-.28l-.85,0v-.2l.85,0a.62.62,0,0,1,.63.42,1.13,1.13,0,0,1,.05.32Z"/><path class="cls-4" d="M59.93,89.33a.85.85,0,0,0,.26-.65V83.75a2,2,0,0,0,0-.44A.67.67,0,0,0,60,83a.68.68,0,0,0-.37-.22,2.27,2.27,0,0,0-.64-.07c-1.77,0-2.65,0-4.42.08V94.69l2.24,0v-5h.32c.46,2,.68,3,1.14,5l2.25,0-1.2-5A.85.85,0,0,0,59.93,89.33Zm-1.94-1a.66.66,0,0,1,0,.15s-.07,0-.17,0h-1V83.86l1,0c.11,0,.17,0,.19.08a.55.55,0,0,1,0,.18Z"/><path class="cls-6" d="M54.85,94.39V83.15h.2v11l1.35,0v.2l-1.44,0Zm3.64-.07,0-.08-1.11-4.91H56.8v-.2l.73,0v.08l1.12,4.92H60v.2H58.49Zm0-5.94h-.2V84.1a1.09,1.09,0,0,0,0-.26.43.43,0,0,0-.46-.29l-1,0v-.2l1,0a.63.63,0,0,1,.66.43,1.13,1.13,0,0,1,.05.32Zm.5-5.21V83h0Z"/><path class="cls-4" d="M61.39,82.66V94.59c1.86,0,2.78,0,4.64,0V93.47l-2.39,0V89h2.09V88l-2.09,0V83.81l2.39,0V82.69C64.17,82.66,63.25,82.66,61.39,82.66Z"/><path class="cls-6" d="M65.63,94.32c-1.24,0-2,0-3.07,0h-.87V83.05h.2v11h.67c1,0,1.84,0,3.08,0Z"/><path class="cls-6" d="M65.34,88.73h-1.7v-.21l1.7,0Z"/><path class="cls-6" d="M65.63,83.54l-2,0v-.2l2,0Z"/><path class="cls-4" d="M70.51,82.78v2.34l-1-2.12a.36.36,0,0,0-.24-.21,1.34,1.34,0,0,0-.35-.05l-1.85,0V94.63l2.2.05v-9.1c.5.92.75,1.39,1.26,2.31v6.82l2.2.07V82.85Z"/><path class="cls-6" d="M68.85,94.37l-1.41,0h-.1V83.1h.2V94.15l1.32,0Z"/><path class="cls-6" d="M72.31,94.47l-1.41,0h-.1V87.82l-1.46-2.68.17-.1L71,87.79v6.44l1.32,0Z"/><rect class="cls-6" x="70.8" y="83.18" width="0.2" height="1.94"/><path class="cls-4" d="M79.31,83.52a1.29,1.29,0,0,0-.41-.28,2,2,0,0,0-.66-.13L75.12,83a2,2,0,0,0-.63,0,.7.7,0,0,0-.36.2.71.71,0,0,0-.16.34,2,2,0,0,0,0,.44v9.77a2,2,0,0,0,0,.44.75.75,0,0,0,.16.35.81.81,0,0,0,.36.24,2.44,2.44,0,0,0,.63.1l3.24.16A2.08,2.08,0,0,0,79,95a.7.7,0,0,0,.37-.2.73.73,0,0,0,.16-.33,2,2,0,0,0,0-.44V90.75l-2.23-.12v3a1.1,1.1,0,0,1,0,.18s-.08.07-.18.07l-.74,0c-.12,0-.19,0-.21-.09a.57.57,0,0,1,0-.18V84.41a.48.48,0,0,1,0-.18c0-.06.09-.08.21-.07l.74,0q.15,0,.18.09a1.11,1.11,0,0,1,0,.19v2.29l2.23.13V84.36a1.7,1.7,0,0,0-.06-.46A.82.82,0,0,0,79.31,83.52Z"/><path class="cls-6" d="M78.56,94.76h-.19c-1.31-.07-2-.11-3.23-.16a2.29,2.29,0,0,1-.55-.09.51.51,0,0,1-.23-.14.61.61,0,0,1-.11-.23,2.17,2.17,0,0,1,0-.38V84h.2v9.77a1.72,1.72,0,0,0,0,.34.3.3,0,0,0,.06.14.47.47,0,0,0,.15.08,1.79,1.79,0,0,0,.49.08c1.28,0,1.92.09,3.24.16a1.78,1.78,0,0,0,.49,0l.05.2A1.82,1.82,0,0,1,78.56,94.76Z"/><rect class="cls-6" x="77.63" y="91.04" width="0.2" height="2.54"/><path class="cls-6" d="M79.17,86.57l-1.44-.08h-.1v-2a1.09,1.09,0,0,0,0-.26.45.45,0,0,0-.44-.31h0l-.75,0v-.2l.75,0a.64.64,0,0,1,.62.45,1.17,1.17,0,0,1,0,.32v1.82l1.36.08Z"/><path class="cls-4" d="M80.79,83.26c0,4.77,0,7.16,0,11.93l2.27.15V83.41Z"/><path class="cls-6" d="M82.66,95l-1.49-.1h-.09V83.68h.2v11l1.4.1Z"/><path class="cls-4" d="M89.76,84.27a.94.94,0,0,0-.37-.26,2.48,2.48,0,0,0-.64-.13c-1.32-.12-2-.18-3.29-.28a2,2,0,0,0-.63,0,.69.69,0,0,0-.36.19.7.7,0,0,0-.17.33,2,2,0,0,0,0,.44v3.51a4.19,4.19,0,0,0,0,.42.56.56,0,0,0,.12.27.65.65,0,0,0,.24.19,2.58,2.58,0,0,0,.39.16l2.51.88a.27.27,0,0,1,.19.28v4a.55.55,0,0,1,0,.18c0,.05-.07.07-.17.06l-.81-.07c-.12,0-.19,0-.21-.1a.48.48,0,0,1,0-.18v-3l-2.23-.18v3.28a2.15,2.15,0,0,0,0,.45.76.76,0,0,0,.17.35.75.75,0,0,0,.36.25,2.54,2.54,0,0,0,.63.13c1.31.1,2,.16,3.29.28a2.17,2.17,0,0,0,.64,0,.68.68,0,0,0,.37-.18.73.73,0,0,0,.16-.33,1.94,1.94,0,0,0,0-.44V90.57c0-.23,0-.42,0-.56a.74.74,0,0,0-.08-.36.65.65,0,0,0-.22-.25,3.16,3.16,0,0,0-.41-.2l-2.55-.91a.35.35,0,0,1-.18-.1.49.49,0,0,1,0-.15v-3a.57.57,0,0,1,0-.18s.09-.07.21-.06l.81.07c.1,0,.15,0,.17.1a.5.5,0,0,1,0,.18v1.88l2.23.21V85.08a2,2,0,0,0,0-.45A1,1,0,0,0,89.76,84.27Z"/><path class="cls-6" d="M88.23,94.31H88v-4a.55.55,0,0,0-.4-.55l-2.5-.88a2.82,2.82,0,0,1-.36-.15.4.4,0,0,1-.14-.11.31.31,0,0,1-.06-.13,3.63,3.63,0,0,1,0-.38V84.58h.2v3.51a3,3,0,0,0,0,.35l0,0,.07.06.33.13c1,.35,1.51.52,2.5.88a.75.75,0,0,1,.54.74Z"/><path class="cls-6" d="M89.05,95.53h-.27l-3.3-.29a2.14,2.14,0,0,1-.55-.1.56.56,0,0,1-.24-.16.6.6,0,0,1-.1-.23,1.51,1.51,0,0,1,0-.39V91.5h.2v2.85a1.83,1.83,0,0,0,0,.35,1,1,0,0,0,.07.15.42.42,0,0,0,.15.09,1.67,1.67,0,0,0,.5.09l3.29.29a2,2,0,0,0,.5,0l0,.2Z"/><path class="cls-6" d="M89.56,87l-1.44-.14H88V85.2a1.26,1.26,0,0,0,0-.27.44.44,0,0,0-.43-.3l-.88-.08v-.2h.07l.82.07a.62.62,0,0,1,.6.45,1.13,1.13,0,0,1,0,.32v1.43l1.35.13Z"/><path class="cls-4" d="M90.56,85.23l1.64.16V96.18l2.22.24V85.64l1.67.19V84.68c-2.21-.26-3.32-.38-5.53-.6Z"/><path class="cls-6" d="M94,96.08l-1.44-.16h-.09V85.13L90.94,85h-.09v-.45h.21v.27l1.54.16h.09V95.73l1.35.15Z"/><path class="cls-6" d="M95.68,85.49l-1.28-.15,0-.2,1.28.15Z"/><path class="cls-4" d="M102.72,86.73a1.78,1.78,0,0,0-.06-.47,1.16,1.16,0,0,0-.2-.4,1.63,1.63,0,0,0-.4-.31,1.86,1.86,0,0,0-.65-.18c-1.23-.17-1.85-.26-3.08-.41a1.73,1.73,0,0,0-.65,0,1,1,0,0,0-.4.21.73.73,0,0,0-.2.34A1.63,1.63,0,0,0,97,86V96.72l2.22.28V91.42l1.26.16v5.59l2.22.31Zm-2.22,3.79-1.26-.17V86.48a.47.47,0,0,1,0-.17s.1-.07.22-.06l.81.11c.1,0,.16,0,.17.11a.48.48,0,0,1,0,.18Z"/><path class="cls-6" d="M102.31,97.12l-1.43-.19-.09,0V91.33l-1.56-.21,0-.2,1.74.23v5.59l1.35.19Zm-3.47-.46-1.44-.18h-.09V86h.2V96.29l1.35.17ZM101,90.52h-.2V86.65a.75.75,0,0,0,0-.26.44.44,0,0,0-.41-.32L99.52,86h-.11v-.2h.14l.82.11a.66.66,0,0,1,.58.46,1.12,1.12,0,0,1,0,.32Z"/><path class="cls-1" d="M59.25,89.37v-.2a.36.36,0,0,0,.28-.12.37.37,0,0,0,.12-.29h.2a.55.55,0,0,1-.18.43A.56.56,0,0,1,59.25,89.37Z"/><path class="cls-1" d="M61.94,124.51l-2.55-1.6a73.35,73.35,0,0,1-7.75-5.58A76,76,0,0,1,36.19,100c-.35-.54-.7-1.09-1.07-1.69L34,98.44l-2.2.22-1.25.14c-.9.09-1.33.14-2.2.25l-2.15.25-.25,0-3.25.43a4.61,4.61,0,0,1-1.39,0,3.07,3.07,0,0,1-2.53-2.42,4.16,4.16,0,0,1-.1-1V86.63a4.69,4.69,0,0,1,.09-.94,3.48,3.48,0,0,1,.61-1.36,3.3,3.3,0,0,1,1.33-1,4.81,4.81,0,0,1,1.31-.36l1.31-.18.77-.11c.46-.07,1.23-.18,2.25-.31l1-.12A106.17,106.17,0,0,1,21,45.6l.2-4.79L26,41q.66,0,1.35,0a38.51,38.51,0,0,0,11.46-1.86,56.44,56.44,0,0,0,13.34-6.32A53.7,53.7,0,0,0,58.72,28l3.22-2.92.06.07L65.16,28a54.6,54.6,0,0,0,6.57,4.84,56.82,56.82,0,0,0,13.33,6.33A38.51,38.51,0,0,0,96.56,41c.46,0,.91,0,1.36,0l4.79-.2v.1l.2,4.69a105.84,105.84,0,0,1-6.38,36.54c1.41.19,2.8.4,4.14.6l1.08.16a4.37,4.37,0,0,1,1.47.46,3.62,3.62,0,0,1,1.15.92,3.47,3.47,0,0,1,.69,1.35h0a4.42,4.42,0,0,1,.14,1.1v13.61l-2.84-.4-2.19-.31-1.7-.22c-2-.26-5.37-.64-9.75-1l-1.08,1.7a76.07,76.07,0,0,1-15.45,17.28,75.32,75.32,0,0,1-7.7,5.54ZM35.22,98.12l0,0c.38.62.74,1.19,1.1,1.74A74.6,74.6,0,0,0,59.5,122.74l2.44,1.53,2.44-1.53a73.48,73.48,0,0,0,7.68-5.53A75.65,75.65,0,0,0,87.47,100c.37-.57.75-1.16,1.11-1.74l0-.06h.06c4.42.38,7.78.76,9.82,1l1.7.22,2.2.31,2.61.37V86.73a4.57,4.57,0,0,0-.13-1h0a3.48,3.48,0,0,0-.65-1.27,3.61,3.61,0,0,0-1.09-.87,4.24,4.24,0,0,0-1.41-.44l-1.08-.16c-1.38-.21-2.81-.42-4.26-.61l-.12,0,0-.12a105.66,105.66,0,0,0,6.41-36.58L102.52,41l-4.59.19c-.45,0-.91,0-1.37,0A38.6,38.6,0,0,1,85,39.36,56.83,56.83,0,0,1,71.62,33,57.22,57.22,0,0,1,65,28.15l-3.08-2.8-3.08,2.79A55.35,55.35,0,0,1,52.21,33a56.15,56.15,0,0,1-13.37,6.34,38.7,38.7,0,0,1-11.53,1.87c-.46,0-.92,0-1.36,0L21.36,41l-.19,4.59a105.56,105.56,0,0,0,6.42,36.64l0,.12h-.12l-1.11.14-2.25.31-.76.11-1.31.18a4.81,4.81,0,0,0-1.26.34,3.22,3.22,0,0,0-1.25,1A3.08,3.08,0,0,0,19,85.73a4.29,4.29,0,0,0-.09.9v9.76a3.82,3.82,0,0,0,.1.92,2.84,2.84,0,0,0,2.36,2.26,4.22,4.22,0,0,0,1.33,0L26,99.14l.23,0,2.16-.25c.87-.11,1.31-.15,2.21-.25l1.25-.14L34,98.24Z"/></svg>