<svg id="Capa_1" data-name="Capa 1" xmlns="http://www.w3.org/2000/svg" viewBox="0 0 101.11 121.02"><defs><style>.cls-1{fill:#999;}.cls-2{fill:#12233c;}.cls-3{fill:#c20c0d;}.cls-4{fill:#fff;}.cls-5{fill:#ccc;}.cls-6,.cls-7{fill:none;stroke-miterlimit:10;stroke-width:0.2px;}.cls-6{stroke:gray;}.cls-7{stroke:#999;}</style></defs><path class="cls-1" d="M95.19,73.14a3.35,3.35,0,0,0-.68-1.31,3.59,3.59,0,0,0-1.12-.9A4.44,4.44,0,0,0,92,70.49l-.47-.06-.62-.1c-1.4-.22-2.82-.42-4.25-.62A106.52,106.52,0,0,0,93,33.09l-.2-4.69-4.69.2c-.44,0-.9,0-1.36,0a38.73,38.73,0,0,1-11.53-1.88A56.41,56.41,0,0,1,61.9,20.41a55.34,55.34,0,0,1-6.59-4.85L52.16,12.7,49,15.55a54.92,54.92,0,0,1-6.63,4.88A56.16,56.16,0,0,1,29,26.76a38.51,38.51,0,0,1-11.5,1.87c-.46,0-.91,0-1.36,0l-4.69-.2-.2,4.69a106.48,106.48,0,0,0,6.44,36.68l-1.11.14-2.25.3-.59.09-.17,0-1.32.18a4.28,4.28,0,0,0-1.28.35,3.18,3.18,0,0,0-1.29,1,3.22,3.22,0,0,0-.59,1.32,4.49,4.49,0,0,0-.09.92v9.76a4,4,0,0,0,.1.94,3,3,0,0,0,2.45,2.34,4.23,4.23,0,0,0,.63,0,6.23,6.23,0,0,0,.72,0c1.31-.18,2-.27,3.26-.43l.24,0,2.15-.26,2.21-.25L22,86.05l2.2-.23.52,0,.63-.06c.36.58.73,1.16,1.1,1.74a76.49,76.49,0,0,0,15.43,17.29,75.68,75.68,0,0,0,7.74,5.57l2.5,1.57,2.49-1.57a75.32,75.32,0,0,0,7.7-5.54A75.79,75.79,0,0,0,77.77,87.52c.38-.58.75-1.16,1.11-1.75,4.41.38,7.78.77,9.82,1l.45.06L90.4,87l2.2.3,2.72.39V74.21A4.82,4.82,0,0,0,95.19,73.14Z"/><path class="cls-2" d="M50.2,109.46a76.86,76.86,0,0,1-7.64-5.5A75.35,75.35,0,0,1,27.34,86.9c-16.08-24.66-15.06-53.48-15-53.76l.16-3.69,3.68.16,1.4,0a39.86,39.86,0,0,0,11.8-1.91,57.59,57.59,0,0,0,13.59-6.44,55,55,0,0,0,6.76-5l2.48-2.24,2.47,2.25a56.58,56.58,0,0,0,6.72,5A57.74,57.74,0,0,0,75,27.72a39.75,39.75,0,0,0,11.83,1.92c.47,0,.94,0,1.4,0l3.68-.16L92,33.14c0,.28,1,29.15-15.09,53.83a74.3,74.3,0,0,1-22.82,22.49l-2,1.22Z"/><path class="cls-3" d="M50.92,108.31A72.75,72.75,0,0,1,28.48,86.16c-15.83-24.27-14.84-52.68-14.83-53l.1-2.32,2.32.09,1.46,0a40.87,40.87,0,0,0,12.2-2,58.59,58.59,0,0,0,13.92-6.59,54.22,54.22,0,0,0,6.94-5.12l1.57-1.42,1.56,1.42a56.28,56.28,0,0,0,6.9,5.1A59,59,0,0,0,74.54,29a40.83,40.83,0,0,0,12.24,2c.49,0,1,0,1.46,0l2.32-.09.1,2.32c0,.29,1,28.7-14.87,53a73.6,73.6,0,0,1-14.94,16.72,73.28,73.28,0,0,1-7.46,5.37l-1.23.77Z"/><path class="cls-2" d="M89.69,33.23l0-1.35-1.36.05q-.75,0-1.5,0a42.06,42.06,0,0,1-12.53-2A60,60,0,0,1,60.1,23.22a58.07,58.07,0,0,1-7-5.19l-.91-.83-.92.83a56.36,56.36,0,0,1-7.07,5.22A60,60,0,0,1,30,30a41.78,41.78,0,0,1-12.49,2q-.75,0-1.5,0l-1.35-.05-.06,1.35c0,.28-1,28.38,14.67,52.4A73,73,0,0,0,44,102.16a71.92,71.92,0,0,0,7.39,5.32l.73.46.72-.45a73.91,73.91,0,0,0,7.35-5.3A72.82,72.82,0,0,0,75,85.69C90.72,61.61,89.71,33.51,89.69,33.23Z"/><path class="cls-4" d="M77.13,36.63c-2.35-.09-12.92,0-12.92,0l-.3.23L66,63.41l4,.19.23-10.71,5.28-.62,1.16.84,1.78-.35L79.4,52a13.48,13.48,0,0,0,.22-2.88V39A2.57,2.57,0,0,0,77.13,36.63ZM70.24,49.92V40.18H73c.29,0,.47.09.51.27a2.62,2.62,0,0,1,.07.57v8a2.69,2.69,0,0,1-.07.61c0,.18-.22.27-.51.27Z"/><path class="cls-4" d="M47.64,41.84h3.62V50.4s-.29.57,1,.54,1.43-.06,1.43-.06l.36-.75L53.81,42l.46-.16h3.07v9.45l-.82,1.3-2.23-.14,0,5.82-.72.19L51.3,57.35l-.63-4.9-1.83-.64Z"/><path class="cls-4" d="M40.57,39.06s1.19-2.78-3.82-2.49a85.31,85.31,0,0,1-9.54,0s-2.89.79-1.49,2.51l1.35,2.59V62.28l12.35,1.43a.76.76,0,0,0,.37-.17h0c.48-.36,1.25-1.48,1.25-4.91C41.05,53.63,40.57,39.06,40.57,39.06ZM31.16,59.21V41a2.12,2.12,0,0,1,.08-.57q.09-.27.6-.27h2.33q.45,0,.51.27a2.12,2.12,0,0,1,.07.57V59.21a2.32,2.32,0,0,1-.07.61c0,.18-.21.26-.51.26H31.84c-.34,0-.54-.08-.6-.26A2.31,2.31,0,0,1,31.16,59.21Z"/><path class="cls-5" d="M37.36,38.62a2.45,2.45,0,0,0-1.52-.39H30a6.56,6.56,0,0,0-1,.08,1.14,1.14,0,0,0-.82.61,1.27,1.27,0,0,1,.87-.09,2.74,2.74,0,0,1,.87.32,2.16,2.16,0,0,1,.65.52c.15.18.2.35.14.47a1.84,1.84,0,0,0-.08.42c0,.16,0,.31,0,.46V59.21a3.15,3.15,0,0,0,.15,1c.1.29.43.44,1,.44h2.33a1,1,0,0,0,.64-.16,1.07,1.07,0,0,0,.32-.42.47.47,0,0,1,.55-.32,2.08,2.08,0,0,1,.89.24,2.78,2.78,0,0,1,.79.62.84.84,0,0,1,.24.76,1.48,1.48,0,0,0,.21-.7c0-.35,0-.65,0-.9V40.45C37.85,39.48,37.69,38.87,37.36,38.62ZM34.75,59.21a2.32,2.32,0,0,1-.07.61c0,.18-.21.26-.51.26H31.84c-.34,0-.54-.08-.6-.26a2.31,2.31,0,0,1-.08-.61V41a2.12,2.12,0,0,1,.08-.57q.09-.27.6-.27h2.33q.45,0,.51.27a2.12,2.12,0,0,1,.07.57Z"/><path class="cls-5" d="M40.94,38.44a2.4,2.4,0,0,0-.48-1.14,2.36,2.36,0,0,0-1-.75,4.89,4.89,0,0,0-1.79-.27H28.25a5.08,5.08,0,0,0-1.81.27,2.36,2.36,0,0,0-1,.75,2.59,2.59,0,0,0-.46,1.14,8.45,8.45,0,0,0-.11,1.47v20.4a8.7,8.7,0,0,0,.11,1.51A2.63,2.63,0,0,0,25.4,63a2.27,2.27,0,0,0,1,.74,5.08,5.08,0,0,0,1.81.27h9.38a4.89,4.89,0,0,0,1.79-.27l.37-.17h0a2.14,2.14,0,0,0,.66-.56,2.43,2.43,0,0,0,.48-1.15,8.7,8.7,0,0,0,.11-1.51V39.91A8.45,8.45,0,0,0,40.94,38.44ZM39.1,62.8a2.32,2.32,0,0,1-.82-.31,1.55,1.55,0,0,1-.55-.56.68.68,0,0,1-.13-.55,1.14,1.14,0,0,1-.61.52A3.23,3.23,0,0,1,36,62H30.08a2.32,2.32,0,0,1-1.64-.44A2.67,2.67,0,0,1,28,59.74V40.45a3.67,3.67,0,0,1,.26-1.53,1.6,1.6,0,0,1-.88.15,2.49,2.49,0,0,1-.91-.23,1.4,1.4,0,0,1-.62-.47.59.59,0,0,1-.05-.64,2,2,0,0,1,.89-.64,4.45,4.45,0,0,1,1.57-.23h9.38a4.64,4.64,0,0,1,1.54.21,1.94,1.94,0,0,1,.89.61,2,2,0,0,1,.42,1,8.2,8.2,0,0,1,.09,1.26v20.4a6.65,6.65,0,0,1-.11,1.34,2.16,2.16,0,0,1-.46,1A1.38,1.38,0,0,1,39.1,62.8Z"/><path class="cls-5" d="M53.6,50.26a1.35,1.35,0,0,1,0,.37c0,.11-.13.17-.31.17H51.79c-.2,0-.33-.06-.36-.17a1.32,1.32,0,0,1,0-.37V41.64H47.5v8.88a5.33,5.33,0,0,0,.07.93,1.6,1.6,0,0,0,.28.72,1.38,1.38,0,0,0,.64.44,3.1,3.1,0,0,0,1.11.16h1v5.85H54.4V52.77h1a3,3,0,0,0,1.1-.16,1.38,1.38,0,0,0,.64-.44,1.5,1.5,0,0,0,.29-.72,5.33,5.33,0,0,0,.07-.93V41.64H53.6Zm.23.54c0-.08.13-.13.3-.17a1.63,1.63,0,0,1,.54,0,1.18,1.18,0,0,1,.51.23.52.52,0,0,1,.2.5.92.92,0,0,0,.12-.44c0-.19,0-.32,0-.4V42.93L53.89,42h3.28v8.52a4,4,0,0,1-.06.72,1.61,1.61,0,0,1-.22.59.59.59,0,0,1-.37.19A1.31,1.31,0,0,1,56,52a1,1,0,0,1-.46-.22.45.45,0,0,1-.16-.42.76.76,0,0,1-.44.35,2.47,2.47,0,0,1-.69.07H52.48l1.63.63v5.86l-1.63-.94V51.78H50.72a4.45,4.45,0,0,1-.57,0,.85.85,0,0,1-.4-.17.76.76,0,0,1-.23-.37,2.51,2.51,0,0,1-.08-.69V42.93L47.79,42h3.3v8.26a1.72,1.72,0,0,0,.1.62q.09.27.6.27h1.46a.72.72,0,0,0,.4-.09A.53.53,0,0,0,53.83,50.8Z"/><path class="cls-5" d="M76.18,38.62a2.45,2.45,0,0,0-1.52-.39H67.08l2.68,1.38V50.5H73a1.23,1.23,0,0,0,.65-.14.78.78,0,0,0,.31-.44.47.47,0,0,1,.49-.36,1.59,1.59,0,0,1,.82.21,2.68,2.68,0,0,1,.74.61,1,1,0,0,1,.28.76.94.94,0,0,0,.31-.64,6.22,6.22,0,0,0,.08-.88V40.45C76.68,39.48,76.51,38.87,76.18,38.62ZM73.58,49a2.69,2.69,0,0,1-.07.61c0,.18-.22.27-.51.27H70.24V40.18H73c.29,0,.47.09.51.27a2.62,2.62,0,0,1,.07.57Z"/><path class="cls-5" d="M79.77,38.44a2.61,2.61,0,0,0-.48-1.14,2.42,2.42,0,0,0-1-.75,4.94,4.94,0,0,0-1.8-.27H63.91V64h6.33V53.44h6.21a4.94,4.94,0,0,0,1.8-.27,2.48,2.48,0,0,0,1-.74,2.76,2.76,0,0,0,.48-1.15,9.81,9.81,0,0,0,.11-1.51V39.91A9.56,9.56,0,0,0,79.77,38.44ZM79.4,49.77c0,.25,0,.52,0,.78a5.21,5.21,0,0,1-.13.79A2.09,2.09,0,0,1,79,52a.86.86,0,0,1-.45.39,1.5,1.5,0,0,1-.89.17,2,2,0,0,1-.79-.27,1.52,1.52,0,0,1-.51-.53.68.68,0,0,1,0-.6.77.77,0,0,1-.51.42,3.16,3.16,0,0,1-1,.12H67.08l2.68,1.18V63.41l-2.68-1.53V38.23l-2.69-1.37H76.45a4.6,4.6,0,0,1,1.54.21,2,2,0,0,1,.9.61,2.07,2.07,0,0,1,.41,1,7.07,7.07,0,0,1,.1,1.26Z"/><path class="cls-2" d="M52.16,19A58.62,58.62,0,0,1,44.9,24.4v76.71a69,69,0,0,0,7.26,5.22,70.23,70.23,0,0,0,7.21-5.19V24.37A58.86,58.86,0,0,1,52.16,19Z"/><path class="cls-2" d="M16,33.29S14.82,61,30.43,84.89V31.24A42.46,42.46,0,0,1,16,33.29Z"/><path class="cls-2" d="M88.34,33.29a42.72,42.72,0,0,1-14.5-2.06V85C89.5,61,88.34,33.29,88.34,33.29Z"/><path class="cls-3" d="M30.43,31.24V84.89A71.28,71.28,0,0,0,44.9,101.11V24.4A61.83,61.83,0,0,1,30.43,31.24Z"/><path class="cls-3" d="M73.84,85V31.23a61.82,61.82,0,0,1-14.47-6.86v76.77A71.15,71.15,0,0,0,73.84,85Z"/><path class="cls-4" d="M76.93,36.63c-2.35-.09-12.92,0-12.92,0l-.3.23L65.8,63.41l4,.19.23-10.71,5.27-.62,1.16.84,1.79-.35L79.2,52a13.48,13.48,0,0,0,.22-2.88V39A2.57,2.57,0,0,0,76.93,36.63ZM70.05,49.92V40.18H72.8q.45,0,.51.27a2.62,2.62,0,0,1,.07.57v8a2.69,2.69,0,0,1-.07.61q-.06.27-.51.27Z"/><path class="cls-4" d="M47.44,41.84h3.63V50.4s-.3.57,1,.54,1.43-.06,1.43-.06l.36-.75L53.61,42l.46-.16h3.08v9.45l-.82,1.3-2.24-.14,0,5.82-.72.19L51.1,57.35l-.63-4.9-1.82-.64Z"/><path class="cls-4" d="M40.38,39.06s1.18-2.78-3.83-2.49a85.16,85.16,0,0,1-9.53,0s-2.9.79-1.5,2.51l1.35,2.59V62.28l12.36,1.43a.75.75,0,0,0,.36-.17h0c.49-.36,1.26-1.48,1.26-4.91C40.86,53.63,40.38,39.06,40.38,39.06ZM31,59.21V41a1.79,1.79,0,0,1,.08-.57c.05-.18.25-.27.59-.27H34c.3,0,.47.09.52.27a2.62,2.62,0,0,1,.06.57V59.21a2.87,2.87,0,0,1-.06.61c-.05.18-.22.26-.52.26H31.64c-.34,0-.54-.08-.59-.26A2,2,0,0,1,31,59.21Z"/><path class="cls-5" d="M37.16,38.62a2.45,2.45,0,0,0-1.52-.39H29.85a6.58,6.58,0,0,0-1,.08,1.16,1.16,0,0,0-.82.61,1.28,1.28,0,0,1,.87-.09,2.89,2.89,0,0,1,.88.32,2.11,2.11,0,0,1,.64.52c.16.18.21.35.14.47a1.84,1.84,0,0,0-.08.42c0,.16,0,.31,0,.46V59.21a3.47,3.47,0,0,0,.14,1c.1.29.43.44,1,.44H34a1,1,0,0,0,.65-.16,1.29,1.29,0,0,0,.32-.42c.06-.23.24-.34.54-.32a2.16,2.16,0,0,1,.9.24,2.61,2.61,0,0,1,.78.62.84.84,0,0,1,.24.76,1.28,1.28,0,0,0,.21-.7c0-.35,0-.65,0-.9V40.45C37.66,39.48,37.49,38.87,37.16,38.62ZM34.55,59.21a2.87,2.87,0,0,1-.06.61c-.05.18-.22.26-.52.26H31.64c-.34,0-.54-.08-.59-.26a2,2,0,0,1-.08-.61V41a1.79,1.79,0,0,1,.08-.57c.05-.18.25-.27.59-.27H34c.3,0,.47.09.52.27a2.62,2.62,0,0,1,.06.57Z"/><path class="cls-5" d="M40.75,38.44a2.51,2.51,0,0,0-.49-1.14,2.38,2.38,0,0,0-1-.75,4.94,4.94,0,0,0-1.8-.27H28.05a5,5,0,0,0-1.8.27,2.33,2.33,0,0,0-1.05.75,2.71,2.71,0,0,0-.46,1.14,9.56,9.56,0,0,0-.11,1.47v20.4a9.81,9.81,0,0,0,.11,1.51A2.76,2.76,0,0,0,25.2,63a2.25,2.25,0,0,0,1.05.74,5,5,0,0,0,1.8.27h9.38a4.94,4.94,0,0,0,1.8-.27,3,3,0,0,0,.36-.17h0a2.14,2.14,0,0,0,.66-.56,2.55,2.55,0,0,0,.49-1.15,9.81,9.81,0,0,0,.11-1.51V39.91A9.56,9.56,0,0,0,40.75,38.44ZM38.91,62.8a2.25,2.25,0,0,1-.82-.31,1.58,1.58,0,0,1-.56-.56.72.72,0,0,1-.13-.55,1.14,1.14,0,0,1-.61.52,3.16,3.16,0,0,1-1,.13H29.88a2.27,2.27,0,0,1-1.63-.44,2.67,2.67,0,0,1-.45-1.85V40.45a3.69,3.69,0,0,1,.25-1.53,1.58,1.58,0,0,1-.88.15,2.49,2.49,0,0,1-.91-.23,1.46,1.46,0,0,1-.62-.47.59.59,0,0,1-.05-.64,2,2,0,0,1,.9-.64,4.35,4.35,0,0,1,1.56-.23h9.38a4.64,4.64,0,0,1,1.54.21,1.94,1.94,0,0,1,.89.61,2,2,0,0,1,.42,1,7.07,7.07,0,0,1,.1,1.26v20.4a6.6,6.6,0,0,1-.12,1.34,2.06,2.06,0,0,1-.46,1A1.37,1.37,0,0,1,38.91,62.8Z"/><path class="cls-5" d="M53.4,50.26a1.35,1.35,0,0,1,0,.37c0,.11-.13.17-.31.17H51.6c-.21,0-.33-.06-.37-.17a1.32,1.32,0,0,1,0-.37V41.64H47.3v8.88a5.33,5.33,0,0,0,.07.93,1.73,1.73,0,0,0,.28.72,1.38,1.38,0,0,0,.64.44,3.1,3.1,0,0,0,1.11.16h1v5.85h3.85V52.77h1a3.08,3.08,0,0,0,1.1-.16,1.41,1.41,0,0,0,.63-.44,1.62,1.62,0,0,0,.3-.72,6.53,6.53,0,0,0,.07-.93V41.64H53.4Zm.24.54c0-.08.12-.13.29-.17a1.63,1.63,0,0,1,.54,0,1.18,1.18,0,0,1,.51.23.55.55,0,0,1,.21.5,1.05,1.05,0,0,0,.11-.44,3.54,3.54,0,0,0,0-.4V42.93L53.7,42H57v8.52a4,4,0,0,1-.06.72,1.8,1.8,0,0,1-.21.59.65.65,0,0,1-.38.19,1.31,1.31,0,0,1-.52,0,1,1,0,0,1-.46-.22.42.42,0,0,1-.15-.42.79.79,0,0,1-.44.35,2.6,2.6,0,0,1-.7.07H52.28l1.63.63v5.86l-1.63-.94V51.78H50.52a4.67,4.67,0,0,1-.57,0,.78.78,0,0,1-.39-.17.71.71,0,0,1-.24-.37,2.51,2.51,0,0,1-.08-.69V42.93L47.6,42h3.29v8.26a1.72,1.72,0,0,0,.1.62c.06.18.27.27.61.27h1.45a.7.7,0,0,0,.4-.09A.55.55,0,0,0,53.64,50.8Z"/><path class="cls-5" d="M76,38.62a2.48,2.48,0,0,0-1.53-.39H66.88l2.69,1.38V50.5H72.8a1.18,1.18,0,0,0,.65-.14.74.74,0,0,0,.31-.44.47.47,0,0,1,.49-.36,1.59,1.59,0,0,1,.82.21,2.68,2.68,0,0,1,.74.61,1.06,1.06,0,0,1,.29.76.9.9,0,0,0,.3-.64,6.22,6.22,0,0,0,.08-.88V40.45C76.48,39.48,76.32,38.87,76,38.62ZM73.38,49a2.69,2.69,0,0,1-.07.61q-.06.27-.51.27H70.05V40.18H72.8q.45,0,.51.27a2.62,2.62,0,0,1,.07.57Z"/><path class="cls-5" d="M79.57,38.44a2.5,2.5,0,0,0-.48-1.14,2.42,2.42,0,0,0-1-.75,4.91,4.91,0,0,0-1.8-.27H63.71V64h6.34V53.44h6.2a4.91,4.91,0,0,0,1.8-.27,2.48,2.48,0,0,0,1-.74,2.63,2.63,0,0,0,.48-1.15,9.81,9.81,0,0,0,.11-1.51V39.91A9.56,9.56,0,0,0,79.57,38.44ZM79.2,49.77c0,.25,0,.52,0,.78a4.2,4.2,0,0,1-.13.79,2.37,2.37,0,0,1-.25.64,1,1,0,0,1-.45.39,1.53,1.53,0,0,1-.9.17,2,2,0,0,1-.79-.27,1.52,1.52,0,0,1-.51-.53.65.65,0,0,1,0-.6.82.82,0,0,1-.51.42,3.27,3.27,0,0,1-1,.12H66.88l2.69,1.18V63.41l-2.69-1.53V38.23l-2.69-1.37H76.25a4.56,4.56,0,0,1,1.54.21,2,2,0,0,1,.9.61,2.19,2.19,0,0,1,.42,1,8.2,8.2,0,0,1,.09,1.26Z"/><path class="cls-2" d="M94.21,73.4a2.26,2.26,0,0,0-.48-.92,2.5,2.5,0,0,0-.81-.65,3.16,3.16,0,0,0-1.1-.34l-1.1-.15h0c-38.76-6-77,0-77,0h0l-1.31.18a3.38,3.38,0,0,0-1,.27,2.11,2.11,0,0,0-.9.7,2.32,2.32,0,0,0-.41.92,4,4,0,0,0-.06.72v9.76a4,4,0,0,0,.06.72,2.1,2.1,0,0,0,.51,1,2,2,0,0,0,1.13.58,3,3,0,0,0,.46,0,4.38,4.38,0,0,0,.59,0c1.3-.19,1.95-.27,3.26-.44a3.43,3.43,0,0,0,.34-.06l.53-.07v0l1.54-.18c.88-.11,1.32-.16,2.21-.25L21.93,85l2.22-.22.52,0,.68-.07,2.19-.19,1.25-.11L31,84.23l.65,0,.56,0,.6,0a320.93,320.93,0,0,1,56,1.69l.45.06,1.25.17c.89.11,1.33.18,2.21.3l1.57.22V74.21A3.59,3.59,0,0,0,94.21,73.4Z"/><path class="cls-4" d="M17.16,72.6a.67.67,0,0,0-.37-.17,2.19,2.19,0,0,0-.63,0l-3.28.44a2,2,0,0,0-.63.16.86.86,0,0,0-.36.27.82.82,0,0,0-.16.37,2,2,0,0,0,0,.44v3.51a2.49,2.49,0,0,0,0,.42.45.45,0,0,0,.11.24.57.57,0,0,0,.24.14,2.39,2.39,0,0,0,.39.08l2.5.33a.21.21,0,0,1,.19.24v4a.58.58,0,0,1,0,.19.18.18,0,0,1-.17.1l-.8.11q-.18,0-.21-.06a.33.33,0,0,1,0-.17v-3l-2.21.3v3.28a2,2,0,0,0,0,.44.65.65,0,0,0,.16.32.67.67,0,0,0,.36.17,2.24,2.24,0,0,0,.63,0c1.31-.19,2-.27,3.28-.44a2.24,2.24,0,0,0,.63-.15.83.83,0,0,0,.53-.63,2.15,2.15,0,0,0,0-.45V78.3a.85.85,0,0,0-.09-.35.46.46,0,0,0-.22-.19,1.83,1.83,0,0,0-.4-.11l-2.55-.36c-.1,0-.16,0-.17-.06a.26.26,0,0,1,0-.14v-3a.41.41,0,0,1,0-.19c0-.06.09-.09.21-.11l.8-.1c.1,0,.15,0,.17.05a.55.55,0,0,1,0,.18v1.89c.89-.12,1.34-.18,2.22-.28V73.36a1.85,1.85,0,0,0,0-.43A.64.64,0,0,0,17.16,72.6Z"/><path class="cls-6" d="M15.54,83.08v-4a.61.61,0,0,0-.55-.63l-2.49-.33-.32-.06s-.06,0-.07,0a1.58,1.58,0,0,1,0-.39v-3.5"/><path class="cls-6" d="M16.64,83.85a2.47,2.47,0,0,1-.53.12l-3.29.44-.34,0h-.17a.24.24,0,0,1-.14,0,.26.26,0,0,1-.06-.13,1.86,1.86,0,0,1,0-.36V80.94"/><path class="cls-6" d="M17,75.23l-1.43.18V74a.93.93,0,0,0,0-.29.48.48,0,0,0-.49-.34h-.1l-.8.1"/><path class="cls-4" d="M24,71.9a.9.9,0,0,0-.4-.21,1.87,1.87,0,0,0-.65,0L19.88,72a1.87,1.87,0,0,0-.65.17,1.24,1.24,0,0,0-.4.3,1.11,1.11,0,0,0-.2.39,1.78,1.78,0,0,0-.06.47V84.07l2.23-.26V78.23l1.26-.14v5.59l2.22-.23V72.7a1.63,1.63,0,0,0-.06-.45A.72.72,0,0,0,24,71.9Zm-2,5.12-1.26.14V73.29a.57.57,0,0,1,0-.18c0-.06.09-.09.21-.11l.82-.08c.1,0,.15,0,.17.06a.48.48,0,0,1,0,.18Z"/><path class="cls-6" d="M19.13,72.71,20.4,83.46,19,83.62V73.32m4.92,9.77-1.44.15V77.65l-1.65.18m3.09-5.13-.14-.52M23.23,72,20.46,73m2,3.76V73.16a1.36,1.36,0,0,0,0-.3.52.52,0,0,0-.51-.34h0l-.91.1m-.57,5"/><path class="cls-4" d="M29,73.45l-1-2a.32.32,0,0,0-.24-.18,1.36,1.36,0,0,0-.35,0l-1.85.17V83.33l2.2-.19V74c.5.87.75,1.31,1.26,2.18V83l2.19-.17V70.93L29,71.1Z"/><path class="cls-6" d="M30.75,82.5l-1.41.11v-6.5l-1.55-2.66"/><line class="cls-6" x1="29.34" y1="73.45" x2="29.34" y2="71.47"/><path class="cls-6" d="M27.29,82.78l-1.4.12V71.76"/><path class="cls-4" d="M34.69,70.69l-2.33.16V82.77c1.81-.12,2.71-.18,4.53-.28V81.35l-2.2.12Z"/><path class="cls-6" d="M36.49,82.12l-3.74.23V71.21"/><path class="cls-4" d="M43.35,70.59a.71.71,0,0,0-.37-.21,1.92,1.92,0,0,0-.63-.06L39,70.46a2.44,2.44,0,0,0-.63.1.81.81,0,0,0-.36.24.76.76,0,0,0-.17.35,2.09,2.09,0,0,0,0,.45v9.76a2,2,0,0,0,0,.45.68.68,0,0,0,.53.53,2.25,2.25,0,0,0,.63,0l3.33-.14a2.49,2.49,0,0,0,.63-.09.74.74,0,0,0,.53-.58,2.09,2.09,0,0,0,0-.45V71.37a2,2,0,0,0,0-.45A.78.78,0,0,0,43.35,70.59Zm-2,10.29a.48.48,0,0,1,0,.18c0,.06-.07.09-.17.09l-.82,0c-.12,0-.19,0-.21-.07a.34.34,0,0,1,0-.18V71.82a.39.39,0,0,1,0-.18s.09-.09.21-.09l.82,0c.1,0,.16,0,.17.07a.52.52,0,0,1,0,.18Z"/><path class="cls-6" d="M39,70.85m3.82,10.94a2.17,2.17,0,0,1-.52.07c-1.34,0-2,.07-3.34.14h-.15a1.2,1.2,0,0,1-.36,0,.28.28,0,0,1-.17-.08.26.26,0,0,1-.07-.16,1.28,1.28,0,0,1,0-.36V71.6a1.4,1.4,0,0,1,0-.37m4.91,9.9,0-9.76-.11-.53-.57-.13-2.82,1.11,2.05,9.06V71.77a.88.88,0,0,0,0-.29.52.52,0,0,0-.53-.36h0l-.85,0m.86,10.38"/><path class="cls-4" d="M50.15,76.82a.85.85,0,0,0,.26-.65V71.24a2,2,0,0,0,0-.45.71.71,0,0,0-.16-.34.75.75,0,0,0-.37-.22,2.31,2.31,0,0,0-.64-.06c-1.77,0-2.65,0-4.42.08V82.18c.9,0,1.34,0,2.24-.05v-5h.32c.46,2,.68,3,1.14,5l2.25,0-1.2-5A.9.9,0,0,0,50.15,76.82Zm-1.94-1a.58.58,0,0,1,0,.15s-.07,0-.17,0l-1,0V71.35l1,0c.11,0,.17,0,.19.08a.5.5,0,0,1,0,.18Z"/><path class="cls-6" d="M46.62,81.74l-1.45,0V70.63m5.06,11.06-1.44,0-1.13-5H47m2.18-6.16h0m-2.59,5.92,2-.62V71.59a1,1,0,0,0,0-.3.52.52,0,0,0-.55-.35H47m1,5.51"/><path class="cls-4" d="M51.62,70.15V82.08c1.85,0,2.77,0,4.63,0V81l-2.39,0V76.49l2.09,0V75.44H53.86V71.3l2.39,0V70.17C54.39,70.15,53.47,70.14,51.62,70.15Z"/><path class="cls-6" d="M55.85,81.7l-3.07,0H52V70.54"/><path class="cls-6" d="M55.56,76.11h-1.7"/><path class="cls-6" d="M55.85,70.92h-2"/><path class="cls-4" d="M60.73,70.27v2.34l-1-2.13a.36.36,0,0,0-.24-.21,2,2,0,0,0-.35,0l-1.85,0V82.12l2.2,0V73.07l1.26,2.31v6.81l2.2.08V70.34Z"/><path class="cls-6" d="M59.07,81.76l-1.41,0V70.59"/><path class="cls-6" d="M62.54,81.86l-1.42,0V75.28l-1.48-2.7"/><line class="cls-6" x1="61.12" y1="72.61" x2="61.12" y2="70.67"/><path class="cls-4" d="M69.53,71a1.27,1.27,0,0,0-.41-.27,2,2,0,0,0-.66-.14c-1.24-.07-1.87-.1-3.12-.15a2,2,0,0,0-.63,0,.64.64,0,0,0-.36.21.68.68,0,0,0-.16.33,2,2,0,0,0,0,.45v9.76a2.09,2.09,0,0,0,0,.45.75.75,0,0,0,.16.35.73.73,0,0,0,.36.23,2.07,2.07,0,0,0,.63.1c1.3.06,1.94.09,3.24.17a2.45,2.45,0,0,0,.64,0,.77.77,0,0,0,.37-.2.78.78,0,0,0,.16-.33,2,2,0,0,0,0-.44V78.24l-2.23-.13v3a.9.9,0,0,1,0,.18c0,.06-.08.08-.18.07l-.74,0c-.12,0-.19,0-.21-.1a.48.48,0,0,1,0-.18V71.89a.57.57,0,0,1,0-.18s.09-.07.21-.07l.74,0q.15,0,.18.09a1.1,1.1,0,0,1,0,.18v2.3l2.23.12V71.85a1.65,1.65,0,0,0-.06-.46A.81.81,0,0,0,69.53,71Z"/><path class="cls-6" d="M69.13,82.11a1.69,1.69,0,0,1-.35,0H68.6L65.36,82a1.85,1.85,0,0,1-.52-.08.43.43,0,0,1-.18-.11.38.38,0,0,1-.09-.18,2.05,2.05,0,0,1,0-.37V71.47"/><line class="cls-6" x1="67.95" y1="81.06" x2="67.95" y2="78.53"/><path class="cls-6" d="M69.4,74,68,73.87V72a1,1,0,0,0,0-.29.53.53,0,0,0-.53-.37l-.74,0"/><path class="cls-4" d="M71,70.74V82.67l2.27.16V70.9Z"/><path class="cls-6" d="M72.89,82.41,71.4,82.3V71.16"/><path class="cls-4" d="M80,71.76a.85.85,0,0,0-.37-.26,2.48,2.48,0,0,0-.64-.13l-3.29-.29a2,2,0,0,0-.63,0,.62.62,0,0,0-.36.19.65.65,0,0,0-.17.33,2,2,0,0,0,0,.44v3.51a2.42,2.42,0,0,0,0,.42.54.54,0,0,0,.11.27.78.78,0,0,0,.24.19l.39.16,2.51.88a.26.26,0,0,1,.19.28v4a.5.5,0,0,1,0,.18s-.07.08-.17.07L77,82c-.12,0-.19,0-.21-.1a.57.57,0,0,1,0-.18v-3l-2.23-.18v3.28a2,2,0,0,0,0,.44.85.85,0,0,0,.17.36.83.83,0,0,0,.36.25,2.2,2.2,0,0,0,.63.12l3.29.28a2.21,2.21,0,0,0,.64,0,.69.69,0,0,0,.37-.19.74.74,0,0,0,.16-.32,2,2,0,0,0,0-.44V78.05c0-.23,0-.41,0-.56a.8.8,0,0,0-.08-.36.63.63,0,0,0-.22-.24,2.62,2.62,0,0,0-.41-.2l-2.55-.92c-.1,0-.16-.06-.18-.1a.46.46,0,0,1,0-.14v-3a.48.48,0,0,1,0-.18c0-.05.09-.08.21-.07l.81.07a.18.18,0,0,1,.17.1.55.55,0,0,1,0,.18v1.89l2.23.2V72.56a2,2,0,0,0,0-.44A.85.85,0,0,0,80,71.76Z"/><path class="cls-6" d="M78.35,81.79v-4a.67.67,0,0,0-.47-.65c-1-.36-1.5-.53-2.5-.88L75,76.11a.35.35,0,0,1-.11-.09.19.19,0,0,1,0-.08,3.21,3.21,0,0,1,0-.36V72.07"/><path class="cls-6" d="M79.53,82.9l-.26,0-.26,0-3.3-.28a1.83,1.83,0,0,1-.52-.1.53.53,0,0,1-.2-.12.5.5,0,0,1-.08-.2,1.28,1.28,0,0,1,0-.36V79"/><path class="cls-6" d="M79.79,74.34l-1.44-.13V72.68a1.35,1.35,0,0,0,0-.29.58.58,0,0,0-.52-.38L77,71.94H76.9"/><path class="cls-4" d="M80.78,72.71l1.64.17V83.66l2.22.24V73.12l1.67.2V72.17c-2.21-.26-3.32-.38-5.53-.6Z"/><path class="cls-6" d="M84.25,83.46l-1.44-.15V72.53l-1.64-.17V72"/><path class="cls-6" d="M85.92,72.87l-1.28-.14"/><path class="cls-4" d="M92.94,74.21a1.7,1.7,0,0,0-.06-.46,1.16,1.16,0,0,0-.2-.4,1.42,1.42,0,0,0-.4-.31,2.09,2.09,0,0,0-.65-.19l-3.08-.41a1.93,1.93,0,0,0-.65,0,.89.89,0,0,0-.4.2.77.77,0,0,0-.2.35,1.63,1.63,0,0,0-.06.45V84.21l2.22.28V78.9l1.26.17v5.59c.89.11,1.33.18,2.22.3ZM90.72,78l-1.26-.16V74a.48.48,0,0,1,0-.18c0-.05.1-.07.22-.05l.81.11c.1,0,.16.05.17.1a.58.58,0,0,1,0,.19Z"/><path class="cls-6" d="M87.77,73,89.07,84l-1.44-.18V73.46m4.91,11.05-1.43-.2V78.72l-1.65-.21m3.08-4.3-.45-.82-3.85-.58.83,5.37,0-4.21,2,4V74.14a1,1,0,0,0,0-.3.56.56,0,0,0-.49-.38l-.82-.11h-.13"/><path class="cls-7" d="M50,76.24a.48.48,0,0,1-.15.37.46.46,0,0,1-.35.14"/><path class="cls-7" d="M95.19,73.14a3.35,3.35,0,0,0-.68-1.31,3.59,3.59,0,0,0-1.12-.9A4.44,4.44,0,0,0,92,70.49l-.47-.06-.62-.1c-1.4-.22-2.82-.42-4.25-.62A106.52,106.52,0,0,0,93,33.09l-.2-4.69-4.69.2c-.44,0-.9,0-1.36,0a38.73,38.73,0,0,1-11.53-1.88A56.41,56.41,0,0,1,61.9,20.41a55.34,55.34,0,0,1-6.59-4.85L52.16,12.7,49,15.55a54.92,54.92,0,0,1-6.63,4.88A56.16,56.16,0,0,1,29,26.76a38.51,38.51,0,0,1-11.5,1.87c-.46,0-.91,0-1.36,0l-4.69-.2-.2,4.69a106.48,106.48,0,0,0,6.44,36.68l-1.11.14-2.25.3-.59.09-.17,0-1.32.18a4.28,4.28,0,0,0-1.28.35,3.18,3.18,0,0,0-1.29,1,3.22,3.22,0,0,0-.59,1.32,4.49,4.49,0,0,0-.09.92v9.76a4,4,0,0,0,.1.94,3,3,0,0,0,2.45,2.34,4.23,4.23,0,0,0,.63,0,6.23,6.23,0,0,0,.72,0c1.31-.18,2-.27,3.26-.43l.24,0,2.15-.26,2.21-.25L22,86.05l2.2-.23.52,0,.63-.06c.36.58.73,1.16,1.1,1.74a76.49,76.49,0,0,0,15.43,17.29,75.68,75.68,0,0,0,7.74,5.57l2.5,1.57,2.49-1.57a75.32,75.32,0,0,0,7.7-5.54A75.79,75.79,0,0,0,77.77,87.52c.38-.58.75-1.16,1.11-1.75,4.41.38,7.78.77,9.82,1l.45.06L90.4,87l2.2.3,2.72.39V74.21A4.82,4.82,0,0,0,95.19,73.14Z"/></svg>