<svg id="Capa_1" data-name="Capa 1" xmlns="http://www.w3.org/2000/svg" xmlns:xlink="http://www.w3.org/1999/xlink" viewBox="0 0 411 258"><defs><style>.cls-1,.cls-4{fill:none;}.cls-2{fill:#11223b;}.cls-3{clip-path:url(#clip-path);}.cls-4{stroke:#c20c0d;stroke-miterlimit:10;stroke-width:0.38px;}</style><clipPath id="clip-path"><rect class="cls-1" width="411" height="258"/></clipPath></defs><rect class="cls-2" width="411" height="258"/><g class="cls-3"><polyline class="cls-4" points="-8.2 -23.91 127.66 -73.78 151.56 2.76 377.05 56.08 458.13 129.81"/><polyline class="cls-4" points="-7.93 -22.02 126.09 -71.03 153.79 5.38 375.2 56.66 458.66 130.52"/><polyline class="cls-4" points="-7.66 -20.13 124.52 -68.28 156.02 8.01 373.35 57.24 459.2 131.23"/><polyline class="cls-4" points="-7.38 -18.24 122.95 -65.53 158.25 10.64 371.49 57.83 459.74 131.94"/><polyline class="cls-4" points="-7.11 -16.35 121.38 -62.77 160.48 13.27 369.64 58.41 460.27 132.66"/><polyline class="cls-4" points="-6.84 -14.46 119.81 -60.02 162.71 15.9 367.79 59 460.81 133.37"/><polyline class="cls-4" points="-6.57 -12.57 118.24 -57.27 164.94 18.53 365.93 59.58 461.34 134.08"/><polyline class="cls-4" points="-6.3 -10.68 116.67 -54.52 167.17 21.16 364.08 60.17 461.88 134.8"/><polyline class="cls-4" points="-6.03 -8.79 115.1 -51.76 169.4 23.79 362.23 60.75 462.41 135.51"/><polyline class="cls-4" points="-5.76 -6.9 113.53 -49.01 171.63 26.42 360.37 61.34 462.95 136.22"/><polyline class="cls-4" points="-5.49 -5.01 111.96 -46.26 173.86 29.05 358.52 61.92 463.49 136.93"/><polyline class="cls-4" points="-5.22 -3.12 110.39 -43.5 176.09 31.68 356.67 62.51 464.02 137.65"/><polyline class="cls-4" points="-4.95 -1.23 108.82 -40.75 178.32 34.3 354.81 63.09 464.56 138.36"/><polyline class="cls-4" points="-4.68 0.66 107.25 -38 180.55 36.93 352.96 63.67 465.09 139.07"/><polyline class="cls-4" points="-4.41 2.55 105.69 -35.25 182.78 39.56 351.11 64.26 465.63 139.79"/><polyline class="cls-4" points="-4.14 4.44 104.11 -32.49 185.01 42.19 349.25 64.84 466.17 140.5"/><polyline class="cls-4" points="-3.87 6.33 102.55 -29.74 187.24 44.82 347.4 65.43 466.7 141.21"/><polyline class="cls-4" points="-3.59 8.22 100.98 -26.99 189.47 47.45 345.55 66.01 467.24 141.93"/><polyline class="cls-4" points="-3.32 10.11 99.41 -24.23 191.7 50.08 343.69 66.6 467.77 142.64"/><polyline class="cls-4" points="-3.05 12 97.84 -21.48 193.93 52.71 341.84 67.18 468.31 143.35"/><polyline class="cls-4" points="-2.78 13.89 96.27 -18.73 196.16 55.34 339.99 67.77 468.84 144.06"/><polyline class="cls-4" points="-2.51 15.78 94.7 -15.98 198.39 57.97 338.13 68.35 469.38 144.78"/><polyline class="cls-4" points="-2.24 17.67 93.13 -13.22 200.62 60.6 336.28 68.94 469.92 145.49"/><polyline class="cls-4" points="-1.97 19.56 91.56 -10.47 202.85 63.23 334.43 69.52 470.45 146.2"/><polyline class="cls-4" points="-1.7 21.45 89.99 -7.72 205.08 65.86 332.57 70.11 470.99 146.91"/><polyline class="cls-4" points="-1.43 23.34 88.42 -4.97 207.31 68.48 330.72 70.69 471.52 147.63"/><polyline class="cls-4" points="-1.16 25.23 86.85 -2.21 209.54 71.11 328.87 71.28 472.06 148.34"/><polyline class="cls-4" points="-1.02 27.11 87.11 1.17 207.94 71.2 326.52 73.76 471.65 150.93"/><polyline class="cls-4" points="-0.89 28.99 87.37 4.54 206.33 71.28 324.17 76.25 471.24 153.51"/><polyline class="cls-4" points="-0.76 30.87 87.63 7.92 204.73 71.37 321.82 78.73 470.83 156.1"/><polyline class="cls-4" points="-0.63 32.75 87.89 11.3 203.12 71.45 319.47 81.22 470.42 158.68"/><polyline class="cls-4" points="-0.49 34.63 88.15 14.68 201.51 71.53 317.12 83.7 470.01 161.27"/><polyline class="cls-4" points="-0.36 36.51 88.41 18.05 199.91 71.62 314.77 86.19 469.61 163.85"/><polyline class="cls-4" points="-0.23 38.39 88.67 21.43 198.3 71.7 312.43 88.68 469.2 166.44"/><polyline class="cls-4" points="-0.1 40.27 88.93 24.81 196.7 71.79 310.08 91.16 468.79 169.03"/><polyline class="cls-4" points="0.04 42.15 89.19 28.19 195.09 71.87 307.73 93.65 468.38 171.61"/><polyline class="cls-4" points="0.17 44.02 89.45 31.57 193.49 71.96 305.38 96.14 467.97 174.2"/><polyline class="cls-4" points="0.3 45.91 89.71 34.94 191.88 72.04 303.03 98.62 467.56 176.78"/><polyline class="cls-4" points="0.43 47.78 89.97 38.32 190.27 72.13 300.68 101.11 467.15 179.37"/><polyline class="cls-4" points="0.57 49.66 90.23 41.7 188.67 72.21 298.34 103.59 466.74 181.95"/><polyline class="cls-4" points="0.7 51.54 90.49 45.08 187.06 72.29 295.99 106.08 466.33 184.54"/><polyline class="cls-4" points="0.83 53.42 90.75 48.45 185.46 72.38 293.64 108.56 465.93 187.12"/><polyline class="cls-4" points="0.96 55.3 91.01 51.83 183.85 72.46 291.29 111.05 465.52 189.71"/><polyline class="cls-4" points="1.1 57.18 91.27 55.21 182.24 72.55 288.94 113.54 465.11 192.29"/><polyline class="cls-4" points="1.23 59.06 91.53 58.59 180.64 72.63 286.59 116.02 464.7 194.88"/><polyline class="cls-4" points="1.36 60.94 91.79 61.97 179.03 72.72 284.25 118.51 464.29 197.47"/><polyline class="cls-4" points="1.49 62.82 92.05 65.34 177.43 72.8 281.9 121 463.88 200.05"/><polyline class="cls-4" points="1.63 64.7 92.31 68.72 175.82 72.89 279.55 123.48 463.47 202.64"/><polyline class="cls-4" points="1.76 66.58 92.57 72.1 174.21 72.97 277.2 125.97 463.06 205.22"/><polyline class="cls-4" points="1.89 68.46 92.83 75.48 172.61 73.05 274.85 128.45 462.65 207.81"/><polyline class="cls-4" points="2.02 70.34 93.09 78.86 171 73.14 272.5 130.94 462.25 210.39"/><polyline class="cls-4" points="2.16 72.22 93.35 82.23 169.4 73.22 270.15 133.43 461.84 212.98"/><polyline class="cls-4" points="2.29 74.1 93.61 85.61 167.79 73.31 267.81 135.91 461.43 215.56"/></g></svg>