<svg id="Capa_1" data-name="Capa 1" xmlns="http://www.w3.org/2000/svg" xmlns:xlink="http://www.w3.org/1999/xlink" viewBox="0 0 1920 200"><defs><style>.cls-1,.cls-4{fill:none;}.cls-2{fill:#11223b;}.cls-3{clip-path:url(#clip-path);}.cls-4{stroke:#c20c0d;stroke-miterlimit:10;stroke-width:0.38px;}</style><clipPath id="clip-path"><rect class="cls-1" x="-0.22" width="1920" height="200"/></clipPath></defs><rect class="cls-2" width="1920" height="200"/><g class="cls-3"><polyline class="cls-4" points="-78.13 -2.27 473.85 -47.6 598.68 8.92 1559.07 36.56 1922.09 87.75"/><polyline class="cls-4" points="-76.38 -0.86 468.18 -45.43 608.86 10.78 1551.51 37.11 1924.57 88.26"/><polyline class="cls-4" points="-74.64 0.55 462.51 -43.27 619.04 12.64 1543.95 37.66 1927.04 88.77"/><polyline class="cls-4" points="-72.89 1.97 456.84 -41.1 629.22 14.5 1536.38 38.2 1929.51 89.28"/><polyline class="cls-4" points="-71.14 3.38 451.17 -38.93 639.4 16.37 1528.82 38.75 1931.98 89.79"/><polyline class="cls-4" points="-69.39 4.79 445.5 -36.76 649.58 18.23 1521.26 39.29 1934.46 90.3"/><polyline class="cls-4" points="-67.65 6.21 439.83 -34.59 659.76 20.09 1513.7 39.84 1936.93 90.8"/><polyline class="cls-4" points="-65.9 7.62 434.16 -32.42 669.95 21.95 1506.14 40.39 1939.4 91.31"/><polyline class="cls-4" points="-64.16 9.04 428.49 -30.25 680.13 23.82 1498.58 40.93 1941.88 91.82"/><polyline class="cls-4" points="-62.41 10.45 422.82 -28.08 690.31 25.68 1491.02 41.48 1944.35 92.33"/><polyline class="cls-4" points="-60.66 11.86 417.15 -25.91 700.49 27.54 1483.45 42.02 1946.82 92.84"/><polyline class="cls-4" points="-58.92 13.28 411.49 -23.74 710.67 29.4 1475.89 42.57 1949.29 93.35"/><polyline class="cls-4" points="-57.17 14.69 405.82 -21.57 720.85 31.27 1468.33 43.12 1951.77 93.86"/><polyline class="cls-4" points="-55.42 16.1 400.15 -19.41 731.03 33.13 1460.77 43.66 1954.24 94.37"/><polyline class="cls-4" points="-53.68 17.52 394.48 -17.24 741.22 34.99 1453.21 44.21 1956.71 94.87"/><polyline class="cls-4" points="-51.93 18.93 388.81 -15.07 751.4 36.85 1445.65 44.76 1959.18 95.38"/><polyline class="cls-4" points="-50.18 20.34 383.14 -12.9 761.58 38.71 1438.09 45.3 1961.66 95.89"/><polyline class="cls-4" points="-48.44 21.76 377.47 -10.73 771.76 40.58 1430.53 45.85 1964.13 96.4"/><polyline class="cls-4" points="-46.69 23.17 371.8 -8.56 781.94 42.44 1422.96 46.39 1966.6 96.91"/><polyline class="cls-4" points="-44.94 24.59 366.13 -6.39 792.12 44.3 1415.4 46.94 1969.07 97.42"/><polyline class="cls-4" points="-43.2 26 360.46 -4.22 802.3 46.16 1407.84 47.48 1971.55 97.93"/><polyline class="cls-4" points="-41.45 27.41 354.79 -2.05 812.49 48.03 1400.28 48.03 1974.02 98.44"/><polyline class="cls-4" points="-39.7 28.83 349.12 0.12 822.67 49.89 1392.72 48.58 1976.49 98.94"/><polyline class="cls-4" points="-37.96 30.24 343.45 2.29 832.85 51.75 1385.16 49.12 1978.96 99.45"/><polyline class="cls-4" points="-36.21 31.65 337.79 4.46 843.03 53.61 1377.6 49.67 1981.44 99.96"/><polyline class="cls-4" points="-34.47 33.07 332.12 6.62 853.21 55.48 1370.03 50.22 1983.91 100.47"/><polyline class="cls-4" points="-32.72 34.48 326.45 8.79 863.39 57.34 1362.47 50.76 1986.38 100.98"/><polyline class="cls-4" points="-31.55 35.89 328.63 11.33 856.7 57.49 1353.46 52.77 1985.51 102.96"/><polyline class="cls-4" points="-30.39 37.31 330.81 13.87 850.01 57.65 1344.44 54.78 1984.64 104.94"/><polyline class="cls-4" points="-29.22 38.72 333 16.41 843.33 57.8 1335.43 56.79 1983.77 106.91"/><polyline class="cls-4" points="-28.06 40.13 335.18 18.95 836.64 57.95 1326.42 58.81 1982.9 108.89"/><polyline class="cls-4" points="-26.89 41.55 337.37 21.49 829.95 58.11 1317.4 60.82 1982.03 110.87"/><polyline class="cls-4" points="-25.73 42.96 339.55 24.03 823.26 58.26 1308.39 62.83 1981.16 112.85"/><polyline class="cls-4" points="-24.57 44.38 341.73 26.57 816.57 58.41 1299.37 64.84 1980.29 114.82"/><polyline class="cls-4" points="-23.4 45.79 343.92 29.11 809.88 58.57 1290.36 66.85 1979.42 116.8"/><polyline class="cls-4" points="-22.23 47.2 346.1 31.64 803.19 58.72 1281.35 68.86 1978.55 118.78"/><polyline class="cls-4" points="-21.07 48.62 348.29 34.18 796.5 58.88 1272.33 70.87 1977.68 120.76"/><polyline class="cls-4" points="-19.91 50.03 350.47 36.72 789.81 59.03 1263.32 72.88 1976.81 122.73"/><polyline class="cls-4" points="-18.74 51.44 352.65 39.26 783.12 59.19 1254.3 74.89 1975.94 124.71"/><polyline class="cls-4" points="-17.58 52.86 354.84 41.8 776.43 59.34 1245.29 76.91 1975.07 126.69"/><polyline class="cls-4" points="-16.41 54.27 357.02 44.34 769.74 59.49 1236.28 78.92 1974.2 128.67"/><polyline class="cls-4" points="-15.25 55.68 359.2 46.88 763.05 59.65 1227.26 80.93 1973.33 130.64"/><polyline class="cls-4" points="-14.08 57.1 361.39 49.42 756.37 59.8 1218.25 82.94 1972.45 132.62"/><polyline class="cls-4" points="-12.92 58.51 363.57 51.96 749.68 59.95 1209.23 84.95 1971.58 134.6"/><polyline class="cls-4" points="-11.75 59.92 365.76 54.49 742.99 60.11 1200.22 86.96 1970.71 136.58"/><polyline class="cls-4" points="-10.59 61.34 367.94 57.03 736.3 60.26 1191.2 88.97 1969.84 138.55"/><polyline class="cls-4" points="-9.42 62.75 370.13 59.57 729.61 60.42 1182.19 90.98 1968.97 140.53"/><polyline class="cls-4" points="-8.26 64.16 372.31 62.11 722.92 60.57 1173.18 93 1968.1 142.51"/><polyline class="cls-4" points="-7.09 65.58 374.49 64.65 716.23 60.72 1164.16 95.01 1967.23 144.49"/><polyline class="cls-4" points="-5.93 66.99 376.68 67.19 709.54 60.88 1155.15 97.02 1966.36 146.46"/><polyline class="cls-4" points="-4.76 68.4 378.86 69.73 702.85 61.03 1146.13 99.03 1965.49 148.44"/><polyline class="cls-4" points="-3.6 69.82 381.04 72.27 696.16 61.19 1137.12 101.04 1964.62 150.42"/><polyline class="cls-4" points="-2.43 71.23 383.23 74.81 689.47 61.34 1128.11 103.05 1963.75 152.4"/></g></svg>