<svg width="35" height="35" viewBox="0 0 35 35" fill="none" xmlns="http://www.w3.org/2000/svg">
<circle cx="17.5" cy="17.5" r="17.5" fill="#11223B"/>
<path d="M21.6176 25.2996C21.8625 25.0647 22 24.746 22 24.4138C22 24.0815 21.8625 23.7629 21.6176 23.5279L15.1526 17.3256L21.6176 11.1233C21.8555 10.887 21.9872 10.5705 21.9842 10.2419C21.9812 9.91341 21.8438 9.59914 21.6017 9.36683C21.3595 9.13451 21.032 9.00274 20.6895 8.99989C20.3471 8.99703 20.0171 9.12333 19.7708 9.35157L12.3824 16.4397C12.1375 16.6747 12 16.9934 12 17.3256C12 17.6579 12.1375 17.9765 12.3824 18.2115L19.7708 25.2996C20.0157 25.5345 20.3479 25.6665 20.6942 25.6665C21.0405 25.6665 21.3727 25.5345 21.6176 25.2996Z" fill="white"/>
</svg>
