<svg width="80" height="80" viewBox="0 0 80 80" fill="none" xmlns="http://www.w3.org/2000/svg">
<g filter="url(#filter0_d_345_2037)">
<circle cx="40" cy="40" r="30" fill="white"/>
</g>
<path d="M34.4589 30.4402C34.1651 30.7222 34 31.1046 34 31.5033C34 31.902 34.1651 32.2843 34.4589 32.5663L42.2169 40.0091L34.4589 47.4518C34.1734 47.7354 34.0154 48.1152 34.019 48.5095C34.0226 48.9037 34.1874 49.2808 34.478 49.5596C34.7686 49.8384 35.1617 49.9965 35.5726 49.9999C35.9835 50.0034 36.3794 49.8518 36.675 49.5779L45.5411 41.0721C45.8349 40.7902 46 40.4078 46 40.0091C46 39.6104 45.8349 39.228 45.5411 38.946L36.675 30.4402C36.3811 30.1584 35.9825 30 35.5669 30C35.1514 30 34.7528 30.1584 34.4589 30.4402Z" fill="#12233C"/>
<defs>
<filter id="filter0_d_345_2037" x="0" y="0" width="80" height="80" filterUnits="userSpaceOnUse" color-interpolation-filters="sRGB">
<feFlood flood-opacity="0" result="BackgroundImageFix"/>
<feColorMatrix in="SourceAlpha" type="matrix" values="0 0 0 0 0 0 0 0 0 0 0 0 0 0 0 0 0 0 127 0" result="hardAlpha"/>
<feOffset/>
<feGaussianBlur stdDeviation="5"/>
<feComposite in2="hardAlpha" operator="out"/>
<feColorMatrix type="matrix" values="0 0 0 0 0 0 0 0 0 0 0 0 0 0 0 0 0 0 0.15 0"/>
<feBlend mode="normal" in2="BackgroundImageFix" result="effect1_dropShadow_345_2037"/>
<feBlend mode="normal" in="SourceGraphic" in2="effect1_dropShadow_345_2037" result="shape"/>
</filter>
</defs>
</svg>
